<?xml version="1.0" standalone="no"?>
<!DOCTYPE svg PUBLIC "-//W3C//DTD SVG 20010904//EN"
 "http://www.w3.org/TR/2001/REC-SVG-20010904/DTD/svg10.dtd">
<svg version="1.0" xmlns="http://www.w3.org/2000/svg"
 width="16.000000pt" height="16.000000pt" viewBox="0 0 16.000000 16.000000"
 preserveAspectRatio="xMidYMid meet">
<metadata>
Created by potrace 1.11, written by Peter Selinger 2001-2013
</metadata>
<g transform="translate(0.000000,16.000000) scale(0.001333,-0.001333)"
fill="#000000" stroke="none">
<path d="M6346 11443 c-1 -1 -24 -5 -51 -8 -88 -11 -109 -16 -122 -27 -7 -5
-23 -8 -36 -4 -13 3 -27 2 -31 -1 -4 -4 -15 -8 -24 -8 -54 -3 -123 -19 -119
-29 3 -7 -18 -11 -62 -12 -92 -2 -138 -8 -196 -27 -28 -9 -66 -18 -85 -21 -19
-2 -46 -8 -60 -14 -14 -5 -28 -10 -33 -10 -4 0 -25 -3 -47 -7 -40 -7 -52 -19
-27 -28 6 -2 9 -8 5 -12 -5 -5 -19 -3 -33 3 -27 13 -98 6 -103 -9 -2 -5 -8 -7
-12 -4 -5 3 -45 -8 -90 -26 -65 -25 -79 -33 -70 -44 10 -12 5 -13 -27 -9 -30
4 -35 3 -20 -6 9 -6 17 -16 17 -22 0 -6 -11 -3 -25 6 -23 15 -28 15 -63 -2
-62 -30 -195 -104 -224 -123 -14 -11 -29 -19 -32 -19 -6 0 -167 -109 -176
-119 -3 -4 -25 -20 -50 -36 -24 -17 -52 -37 -61 -45 -33 -28 -45 -37 -85 -60
-22 -13 -55 -47 -76 -79 -21 -31 -47 -67 -58 -81 -29 -35 -149 -203 -226 -317
-35 -52 -71 -101 -79 -109 -7 -8 -17 -23 -20 -34 -3 -11 -11 -20 -16 -20 -5 0
-9 -6 -9 -14 0 -8 -6 -21 -13 -28 -18 -19 -84 -120 -98 -151 -7 -15 -16 -27
-21 -27 -4 0 -8 -4 -8 -10 0 -5 -40 -74 -88 -152 -94 -151 -100 -162 -147
-254 -16 -33 -32 -61 -35 -64 -7 -7 -59 -103 -112 -210 -24 -47 -46 -87 -49
-90 -10 -8 -21 -51 -24 -94 -4 -61 -15 -109 -27 -123 -6 -7 -8 -13 -5 -13 5 0
-55 -178 -78 -233 -10 -24 -11 -147 -3 -209 4 -25 17 -68 31 -95 24 -49 32
-100 19 -118 -4 -6 -27 -27 -52 -47 -42 -34 -88 -51 -165 -62 -16 -2 -30 -5
-30 -6 0 -1 -18 -3 -41 -4 -39 -1 -114 -33 -114 -48 0 -5 -6 -8 -14 -8 -8 0
-16 -4 -18 -10 -3 -9 -34 -18 -73 -19 -17 -1 -17 -3 -5 -11 16 -10 8 -13 -27
-11 -14 2 -24 -5 -29 -21 -4 -13 -8 -126 -9 -253 -2 -268 -12 -335 -53 -356
-15 -7 -35 -22 -44 -34 l-18 -20 0 23 c0 19 -5 22 -45 22 -48 0 -95 -23 -95
-46 0 -7 20 -37 45 -66 58 -67 65 -76 65 -81 0 -3 18 -31 39 -63 22 -33 43
-72 46 -87 5 -18 12 -26 21 -23 11 4 13 -1 7 -22 -6 -25 -8 -65 -4 -118 3 -48
220 -222 245 -197 13 13 5 -36 -24 -141 -16 -60 -27 -113 -24 -117 2 -4 0 -10
-6 -14 -6 -4 -8 -10 -6 -14 3 -4 -1 -34 -9 -67 -7 -32 -16 -75 -18 -94 -3 -19
-6 -35 -7 -35 -1 0 -3 -16 -4 -35 -2 -19 -8 -64 -14 -100 -10 -62 -18 -134
-28 -280 -9 -136 -13 -186 -18 -206 -2 -12 -7 -39 -10 -60 -4 -22 -8 -46 -11
-54 -10 -34 -20 -94 -31 -180 -10 -87 -11 -114 -4 -130 4 -8 10 -67 13 -130 3
-63 8 -122 11 -130 5 -15 13 -61 20 -115 3 -16 7 -48 11 -70 3 -22 8 -53 11
-70 3 -16 7 -38 10 -47 3 -9 7 -25 9 -35 4 -19 22 -96 30 -126 3 -9 7 -25 9
-35 30 -129 97 -318 119 -333 4 -3 10 -12 11 -20 3 -15 38 -91 46 -99 3 -3 12
-18 20 -35 8 -16 17 -32 20 -35 3 -3 16 -27 30 -55 13 -27 27 -52 30 -55 8 -6
22 -39 26 -59 1 -8 6 -17 11 -20 5 -3 17 -26 28 -51 11 -25 23 -48 28 -51 5
-3 8 -9 8 -13 -3 -20 1 -26 14 -26 11 0 14 -7 11 -24 -2 -13 2 -33 10 -45 9
-12 12 -21 7 -21 -4 0 -2 -4 6 -9 13 -8 17 -19 23 -68 1 -7 4 -13 7 -13 4 0 8
-12 9 -26 1 -15 7 -33 13 -40 6 -8 9 -14 6 -14 -3 0 3 -27 13 -60 10 -33 16
-60 13 -60 -3 0 0 -7 7 -15 7 -8 10 -22 6 -30 -3 -8 -2 -15 3 -15 8 0 27 -85
23 -102 -1 -5 3 -8 9 -8 6 0 9 -6 6 -13 -3 -8 -1 -20 3 -28 5 -8 4 -19 -2 -27
-9 -10 -8 -12 2 -10 8 2 15 -6 17 -17 3 -17 2 -17 -7 -5 -8 11 -9 8 -4 -15 4
-16 10 -31 14 -33 5 -2 6 -12 3 -22 -3 -11 -1 -20 5 -20 6 0 9 -8 7 -17 -1
-10 0 -22 4 -28 3 -5 6 -12 6 -15 2 -14 19 -106 21 -115 1 -5 5 -28 9 -50 3
-22 10 -62 16 -90 5 -27 11 -61 14 -75 3 -14 8 -38 12 -55 4 -16 6 -33 5 -37
-1 -4 5 -25 13 -47 8 -23 11 -41 8 -41 -4 0 -2 -5 5 -12 7 -7 12 -22 12 -34 0
-13 5 -26 10 -29 6 -3 10 -16 10 -28 1 -27 24 -60 35 -49 5 4 5 1 1 -6 -9 -14
21 -55 34 -47 4 3 7 -2 6 -10 -2 -22 246 -290 258 -278 3 4 6 -1 6 -9 0 -9 7
-18 15 -22 8 -3 23 -18 32 -33 13 -20 27 -28 48 -29 17 0 64 -15 105 -31 106
-43 139 -53 146 -42 7 13 54 11 54 -2 0 -5 4 -7 10 -4 6 3 10 2 10 -3 0 -5 15
-9 33 -8 17 1 46 -3 62 -9 17 -6 42 -11 58 -10 15 0 27 -2 27 -6 0 -4 8 -6 17
-5 10 2 33 -1 53 -5 19 -5 53 -11 75 -14 69 -9 75 -11 84 -21 5 -5 11 -36 14
-69 5 -56 8 -74 23 -157 3 -18 7 -46 8 -63 0 -16 6 -33 11 -37 6 -5 4 -8 -5
-8 -13 0 -13 -2 -1 -9 8 -5 16 -26 18 -47 2 -21 9 -45 16 -53 7 -8 7 -12 1 -8
-6 3 -11 0 -11 -8 0 -8 4 -12 8 -9 8 5 18 -26 18 -56 0 -8 2 -35 5 -59 3 -24
8 -62 11 -85 5 -44 11 -74 22 -121 6 -28 8 -40 12 -78 1 -11 35 -14 166 -14
l164 0 140 136 c192 187 239 231 293 271 26 19 48 38 48 42 0 12 42 58 52 58
9 0 12 2 73 56 22 20 57 50 79 68 21 17 46 39 55 48 8 10 21 18 28 18 7 0 13
7 13 15 0 8 4 15 9 15 4 0 22 14 39 30 18 17 34 30 37 30 3 0 13 8 23 17 10
10 37 34 61 53 24 19 56 47 72 62 16 15 29 24 29 20 0 -4 6 0 13 8 15 19 127
115 187 160 25 19 66 52 91 74 25 23 65 57 89 76 24 19 56 45 70 57 14 13 30
26 35 30 48 38 115 93 140 115 16 15 59 50 95 78 36 28 79 64 97 80 17 17 34
30 37 30 3 0 14 8 24 17 10 10 40 36 67 58 26 22 61 51 76 65 15 14 49 41 74
60 26 19 58 45 73 58 15 12 32 27 39 32 48 39 130 106 140 114 6 6 33 29 59
51 68 57 118 105 110 105 -4 0 2 10 14 22 11 12 20 28 20 35 0 7 4 13 9 13 16
0 129 72 165 105 20 18 36 30 36 26 0 -3 11 7 25 23 14 16 25 26 25 22 0 -10
56 46 59 59 2 6 19 21 37 34 31 22 103 121 88 121 -4 0 1 12 11 26 9 14 14 28
11 32 -3 3 -6 0 -6 -6 0 -7 -4 -12 -8 -12 -5 0 -9 7 -9 15 0 8 4 15 8 15 4 0
11 10 15 22 3 12 46 103 94 202 121 251 125 260 175 407 38 111 66 223 91 362
2 15 11 47 20 70 8 23 17 53 20 66 3 13 11 33 19 45 8 11 15 27 15 36 0 8 9
21 21 28 19 12 20 12 14 -10 -4 -13 -15 -41 -25 -63 -9 -22 -22 -52 -28 -68
-10 -22 -44 -166 -79 -327 -7 -34 -9 -43 -15 -60 -3 -8 -16 -44 -29 -80 -46
-132 -210 -492 -236 -518 -7 -7 -13 -20 -13 -28 0 -8 -4 -14 -10 -14 -5 0 -10
-7 -10 -15 0 -17 26 -21 32 -4 2 5 10 11 19 12 8 2 28 13 45 26 16 12 22 19
14 15 -8 -4 -23 -14 -32 -22 -10 -8 -18 -11 -18 -6 0 5 19 23 42 39 53 38 80
53 48 25 l-25 -21 36 18 c22 11 32 21 25 25 -7 5 -4 12 9 22 11 9 23 16 26 16
3 0 15 8 27 18 11 9 33 26 48 37 15 11 50 37 77 57 27 20 55 34 62 32 7 -3 16
-1 20 5 4 7 -1 9 -12 5 -16 -5 -16 -4 1 10 10 8 22 13 26 11 4 -3 16 5 26 16
13 14 18 37 19 84 1 36 -2 65 -7 65 -4 0 -8 5 -8 10 0 6 -9 21 -21 33 -21 23
-22 36 -5 220 1 20 -1 37 -7 37 -5 0 -7 -7 -4 -15 4 -8 2 -17 -2 -20 -5 -2 -7
12 -6 33 2 20 4 61 6 90 1 32 7 52 14 52 8 0 12 18 12 50 0 27 -3 48 -6 45 -4
-2 -8 6 -8 18 -2 17 0 19 7 7 8 -12 10 -10 10 8 0 13 -4 21 -8 18 -5 -3 -9 1
-9 9 0 8 4 12 8 9 4 -2 10 0 14 6 3 5 2 10 -3 10 -6 0 -9 11 -8 24 0 13 4 22
9 19 17 -10 5 14 -13 27 -30 22 -25 27 33 33 28 3 63 8 77 11 14 3 39 9 55 12
81 17 187 98 219 166 16 34 46 154 41 160 -2 2 -6 15 -9 30 -2 14 -9 35 -15
46 -13 24 -10 42 23 120 14 34 33 83 42 109 9 27 21 59 27 73 5 14 11 30 13
35 9 33 30 81 39 87 6 4 7 8 3 8 -3 0 5 28 19 63 13 34 26 67 27 72 2 6 6 17
9 25 18 43 96 282 101 307 3 15 12 50 21 78 8 27 18 60 20 72 3 13 8 35 11 51
8 32 8 246 1 282 -7 38 -27 113 -34 130 -4 8 -7 17 -8 20 -1 3 -7 18 -13 33
-7 16 -12 31 -12 34 0 9 -52 68 -74 82 -21 14 -21 14 -2 -7 l18 -21 -30 11
c-17 7 -29 15 -26 19 2 4 -23 -6 -56 -22 -33 -16 -63 -29 -66 -29 -2 0 -10 -5
-17 -10 -7 -6 -33 -24 -59 -41 -77 -50 -194 -172 -252 -263 -10 -17 -31 -44
-47 -60 -15 -17 -37 -42 -48 -56 -44 -53 -45 -54 -49 -41 -5 14 42 86 75 117
13 12 23 24 23 28 0 4 6 14 13 21 6 8 28 35 47 61 95 129 187 208 315 273 42
21 82 47 88 58 7 11 31 54 55 94 23 41 45 85 49 99 3 14 9 27 12 30 7 6 57
161 65 205 4 17 9 41 12 55 13 64 16 110 24 315 8 216 12 251 29 297 12 33 14
205 2 212 -6 4 -10 26 -9 49 0 23 -1 44 -2 47 -1 3 -3 21 -4 40 -4 56 -17 120
-24 119 -23 -4 -35 5 -46 33 -12 27 -12 35 1 55 17 25 15 50 -13 156 -15 56
-21 67 -36 64 -21 -6 -23 5 -7 32 10 14 4 52 -29 182 -22 90 -43 180 -46 199
-15 87 -163 392 -300 620 -45 74 -89 146 -96 160 -8 13 -20 30 -27 37 -7 8
-20 27 -30 43 -9 17 -21 30 -25 30 -4 0 -8 6 -8 13 0 7 -8 22 -18 33 -10 10
-28 35 -42 54 -13 19 -32 44 -41 55 -10 11 -50 61 -89 110 -69 86 -125 151
-246 286 -76 85 -290 269 -313 269 -5 0 -11 4 -13 9 -3 9 -214 141 -225 141
-3 0 -30 18 -58 39 -29 22 -81 53 -116 69 -151 69 -227 101 -266 113 -24 6
-43 16 -43 21 0 4 -6 8 -14 8 -13 0 -75 29 -86 40 -3 3 -23 14 -45 25 -22 11
-41 23 -43 28 -2 4 -8 7 -13 7 -6 0 -42 21 -80 46 -71 46 -128 75 -162 81 -10
2 -30 9 -46 17 -17 9 -32 11 -42 5 -8 -5 -20 -9 -28 -9 -11 0 -11 3 -1 15 10
12 10 15 -1 17 -29 3 -35 4 -54 15 -12 6 -28 7 -40 2 -11 -4 -27 -8 -35 -8 -9
0 -7 3 5 8 19 8 19 8 -1 19 -12 6 -36 14 -55 17 -19 3 -50 11 -69 17 -28 9
-226 19 -234 11z m439 -93 c3 -5 -1 -10 -10 -10 -9 0 -13 5 -10 10 3 6 8 10
10 10 2 0 7 -4 10 -10z m-1455 -750 c13 -25 13 -25 -8 -6 -12 10 -19 23 -16
28 7 11 7 11 24 -22z m-77 3 c-7 -2 -21 -2 -30 0 -10 3 -4 5 12 5 17 0 24 -2
18 -5z m-123 -11 c0 -5 -7 -9 -15 -9 -8 0 -12 4 -9 9 3 4 9 8 15 8 5 0 9 -4 9
-8z m-70 -12 c-8 -5 -24 -9 -35 -9 -16 1 -16 2 5 9 35 11 48 11 30 0z m-65
-10 c-3 -5 -14 -10 -23 -9 -14 0 -13 2 3 9 27 11 27 11 20 0z m-70 -10 c-3 -5
-14 -10 -23 -9 -14 0 -13 2 3 9 27 11 27 11 20 0z m445 -15 c13 -14 21 -25 18
-25 -2 0 -15 11 -28 25 -13 14 -21 25 -18 25 2 0 15 -11 28 -25z m-545 -15
c-3 -5 -14 -10 -23 -9 -14 0 -13 2 3 9 27 11 27 11 20 0z m-70 -20 c-3 -5 -12
-10 -18 -10 -7 0 -6 4 3 10 19 12 23 12 15 0z m660 -10 c3 -6 -1 -7 -9 -4 -18
7 -21 14 -7 14 6 0 13 -4 16 -10z m-715 -15 c-7 -9 -15 -13 -19 -10 -3 3 1 10
9 15 21 14 24 12 10 -5z m-75 -35 c-3 -5 -12 -10 -18 -10 -7 0 -6 4 3 10 19
12 23 12 15 0z m836 -7 c13 -16 12 -17 -3 -4 -17 13 -22 21 -14 21 2 0 10 -8
17 -17z m-931 -37 c0 -2 -8 -10 -17 -17 -16 -13 -17 -12 -4 4 13 16 21 21 21
13z m999 -50 c-2 -2 -13 8 -23 22 l-19 27 24 -22 c12 -12 21 -24 18 -27z
m-1064 4 c-3 -5 -16 -15 -28 -21 -19 -9 -19 -8 3 10 28 23 34 26 25 11z m1096
-27 c13 -16 12 -17 -3 -4 -10 7 -18 15 -18 17 0 8 8 3 21 -13z m-1151 -7 c0
-2 -8 -10 -17 -17 -16 -13 -17 -12 -4 4 13 16 21 21 21 13z m-40 -40 c0 -2 -8
-10 -17 -17 -16 -13 -17 -12 -4 4 13 16 21 21 21 13z m1231 -13 c13 -16 12
-17 -3 -4 -17 13 -22 21 -14 21 2 0 10 -8 17 -17z m44 -52 c-6 -5 -25 10 -25
20 0 5 6 4 14 -3 8 -7 12 -15 11 -17z m50 -61 c10 -11 16 -20 13 -20 -3 0 -13
9 -23 20 -10 11 -16 20 -13 20 3 0 13 -9 23 -20z m75 -90 c6 -11 8 -20 6 -20
-3 0 -10 9 -16 20 -6 11 -8 20 -6 20 3 0 10 -9 16 -20z m51 -67 c13 -16 12
-17 -3 -4 -10 7 -18 15 -18 17 0 8 8 3 21 -13z m48 -67 c-2 -2 -13 8 -23 22
l-19 27 24 -22 c12 -12 21 -24 18 -27z m92 -123 c13 -16 12 -17 -3 -4 -10 7
-18 15 -18 17 0 8 8 3 21 -13z m94 -133 c3 -6 -1 -7 -9 -4 -18 7 -21 14 -7 14
6 0 13 -4 16 -10z m76 -117 c13 -16 12 -17 -3 -4 -10 7 -18 15 -18 17 0 8 8 3
21 -13z m54 -83 c3 -5 1 -10 -4 -10 -6 0 -11 5 -11 10 0 6 2 10 4 10 3 0 8 -4
11 -10z m104 -184 c-3 -3 -11 5 -18 17 -13 21 -12 21 5 5 10 -10 16 -20 13
-22z m2432 -1143 c13 -16 12 -17 -3 -4 -10 7 -18 15 -18 17 0 8 8 3 21 -13z
m-3834 -805 l28 -19 -30 7 c-16 4 -31 8 -33 9 -1 1 -22 -1 -46 -6 -97 -18
-196 -117 -297 -296 -26 -45 -113 -216 -114 -223 0 -3 -12 -30 -26 -60 -14
-30 -36 -77 -48 -103 -24 -54 -31 -64 -81 -114 -44 -45 -189 -143 -211 -143
-31 0 -100 -29 -156 -66 -97 -65 -263 -243 -263 -283 0 -6 -4 -11 -9 -11 -8 0
-16 -22 -28 -70 -2 -8 -3 -42 -4 -75 0 -52 12 -101 46 -190 l7 -20 -14 20
c-15 20 -49 112 -55 150 -12 67 -9 105 11 185 16 60 53 109 172 225 85 84 158
133 224 150 40 11 120 49 120 57 0 5 5 8 11 8 38 0 175 138 206 208 166 377
261 535 388 640 52 44 153 53 202 20z m3658 -477 c17 -7 42 -15 58 -18 27 -6
48 -23 27 -23 -6 0 -36 8 -68 19 -46 15 -81 18 -182 16 -69 -2 -132 -5 -140
-8 -38 -11 -101 -38 -110 -47 -3 -3 -21 -16 -41 -30 -21 -14 -44 -41 -55 -64
-9 -23 -20 -43 -23 -46 -3 -3 -17 -32 -30 -65 -23 -55 -71 -143 -96 -172 -5
-7 -26 -33 -45 -57 -46 -59 -127 -100 -215 -111 -28 -3 -70 -9 -95 -12 -66 -9
-984 -9 -1060 -1 -96 11 -200 18 -341 23 -82 2 -157 11 -215 25 -49 12 -100
24 -113 26 -13 3 -37 12 -52 20 -16 8 -32 15 -36 15 -5 1 -23 7 -42 15 -18 8
-37 14 -41 14 -4 0 -14 7 -21 17 -13 15 -12 15 16 1 44 -23 173 -66 230 -78
28 -6 70 -15 95 -21 25 -5 117 -12 205 -15 175 -6 198 -8 265 -18 99 -16 1084
-8 1175 8 61 12 135 38 167 60 65 43 145 166 226 346 29 66 70 120 91 120 6 0
11 4 11 8 0 8 53 34 119 59 37 14 300 10 336 -6z m-5590 -271 c-4 -6 -10 -8
-15 -5 -5 3 -12 -4 -15 -16 -4 -11 -9 -18 -12 -16 -9 9 18 47 33 47 8 0 12 -5
9 -10z m115 -20 c0 -4 -22 -2 -50 4 -27 5 -50 13 -50 16 0 4 23 2 50 -4 28 -5
50 -13 50 -16z m60 -10 c11 -8 7 -9 -15 -4 -37 8 -45 14 -19 14 10 0 26 -5 34
-10z m40 -10 c0 -5 -2 -10 -4 -10 -3 0 -8 5 -11 10 -3 6 -1 10 4 10 6 0 11 -4
11 -10z m-256 -34 c-3 -9 -10 -16 -15 -16 -5 0 -4 9 3 20 14 22 21 20 12 -4z
m383 8 c15 -3 30 -8 33 -11 3 -3 -13 -2 -35 2 -22 4 -46 7 -52 8 -7 0 -13 4
-13 9 0 5 9 7 20 3 11 -3 32 -9 47 -11z m92 -27 c0 -9 -2 -8 -6 1 -2 6 -10 9
-15 6 -7 -4 -8 -2 -4 5 9 13 26 5 25 -12z m81 -7 c18 -12 2 -12 -25 0 -13 6
-15 9 -5 9 8 0 22 -4 30 -9z m-567 -15 c-3 -9 -8 -14 -10 -11 -3 3 -2 9 2 15
9 16 15 13 8 -4z m607 5 c0 -5 -2 -10 -4 -10 -3 0 -8 5 -11 10 -3 6 -1 10 4
10 6 0 11 -4 11 -10z m80 -11 c0 -3 -13 -6 -30 -7 -16 0 -30 2 -30 6 0 4 14 7
30 7 17 1 30 -2 30 -6z m85 -18 c2 -4 -9 -5 -26 -3 -16 2 -31 7 -34 11 -2 4 9
5 26 3 16 -2 31 -7 34 -11z m101 -18 c-6 -6 -86 9 -86 17 0 4 20 3 45 -3 25
-6 43 -12 41 -14z m-883 2 c-3 -9 -8 -14 -10 -11 -3 3 -2 9 2 15 9 16 15 13 8
-4z m985 -10 c3 -3 -13 -5 -36 -4 -24 2 -45 6 -47 9 -5 8 74 4 83 -5z m66 7
c2 -4 -9 -7 -25 -8 -16 -1 -29 2 -29 5 0 9 48 12 54 3z m-1071 -87 c-7 -21
-12 -19 -10 4 0 11 5 18 9 15 4 -3 5 -11 1 -19z m-21 -67 c-6 -6 -7 0 -4 19 5
21 7 23 10 9 2 -10 0 -22 -6 -28z m-2 -28 c0 -5 -5 -10 -11 -10 -5 0 -7 5 -4
10 3 6 8 10 11 10 2 0 4 -4 4 -10z m-19 -97 c-12 -20 -14 -14 -5 12 4 9 9 14
11 11 3 -2 0 -13 -6 -23z m-1 -43 c0 -11 -4 -20 -9 -20 -5 0 -7 9 -4 20 3 11
7 20 9 20 2 0 4 -9 4 -20z m-15 -85 c-3 -26 -8 -45 -11 -43 -2 3 -1 26 2 52 4
25 9 44 12 42 2 -3 1 -26 -3 -51z m-5 -65 c0 -5 -5 -10 -11 -10 -5 0 -7 5 -4
10 3 6 8 10 11 10 2 0 4 -4 4 -10z m-13 -52 c-3 -8 -6 -5 -6 6 -1 11 2 17 5
13 3 -3 4 -12 1 -19z m3234 -35 c13 -16 12 -17 -3 -4 -10 7 -18 15 -18 17 0 8
8 3 21 -13z m34 -112 c2 -39 -1 -74 -6 -77 -5 -3 -7 -9 -5 -13 3 -4 0 -27 -6
-52 -13 -60 -14 -61 -22 -84 -5 -11 -13 -33 -19 -50 -15 -41 -52 -99 -79 -126
-21 -19 -94 -58 -122 -63 -6 -2 -30 -8 -53 -15 -67 -19 -131 -15 -170 9 -15 9
-14 9 7 5 47 -11 85 -12 104 -2 14 7 17 6 10 -5 -6 -9 -3 -9 11 2 10 8 21 14
24 14 3 -1 11 0 16 1 122 37 168 67 208 140 22 39 54 120 48 120 -1 0 2 13 8
28 6 15 13 42 16 60 4 18 9 48 13 67 4 19 5 56 2 82 -3 27 -2 44 3 39 4 -4 10
-40 12 -80z m-3278 19 c-1 -11 -5 -20 -9 -20 -10 0 -10 4 -2 24 8 22 13 20 11
-4z m-10 -82 c-3 -8 -6 -5 -6 6 -1 11 2 17 5 13 3 -3 4 -12 1 -19z m0 -63 c0
-8 -4 -12 -9 -9 -5 3 -6 10 -3 15 9 13 12 11 12 -6z m909 -71 c18 -14 18 -14
-6 -3 -31 14 -36 19 -24 19 6 0 19 -7 30 -16z m-919 -19 c0 -8 -4 -12 -9 -9
-5 3 -6 10 -3 15 9 13 12 11 12 -6z m998 -13 c-3 -3 -11 0 -18 7 -9 10 -8 11
6 5 10 -3 15 -9 12 -12z m102 -15 c8 -9 -71 4 -80 13 -5 4 10 4 33 0 22 -4 43
-10 47 -13z m93 -17 c11 -7 5 -8 -20 -4 -43 8 -51 14 -19 14 13 0 31 -5 39
-10z m-1207 -30 c-3 -12 -8 -19 -11 -16 -5 6 5 36 12 36 2 0 2 -9 -1 -20z
m1301 6 c16 -3 31 -8 34 -11 4 -3 -9 -3 -28 0 -19 3 -39 11 -45 17 -7 7 -7 9
1 5 6 -3 23 -8 38 -11z m123 -42 c-6 -6 -47 9 -47 17 0 5 11 3 25 -3 14 -6 24
-13 22 -14z m1273 6 c0 -7 -10 -11 -22 -10 -13 1 -25 1 -28 0 -3 -1 -18 -3
-35 -4 -16 -2 -48 -6 -70 -10 -22 -4 -58 -9 -80 -11 -22 -3 -53 -7 -70 -9 -16
-2 -82 -7 -144 -11 -63 -4 -126 -12 -140 -18 -15 -6 -28 -11 -31 -12 -3 -1
-22 -9 -43 -18 -41 -18 -138 -37 -177 -35 -24 1 -112 20 -157 34 -22 6 -29 -6
-24 -38 0 -5 -3 -8 -7 -8 -4 0 -8 18 -7 40 0 22 2 39 5 37 47 -28 96 -40 168
-42 76 -2 168 14 197 35 33 23 113 39 215 44 63 4 126 8 140 11 14 3 50 8 80
10 30 3 68 9 83 13 47 13 147 14 147 2z m-1235 -10 c3 -5 2 -10 -4 -10 -5 0
-13 5 -16 10 -3 6 -2 10 4 10 5 0 13 -4 16 -10z m90 -31 c5 -5 -5 -4 -23 2
-17 6 -32 13 -32 16 0 7 43 -8 55 -18z m-1568 -21 c-3 -8 -6 -5 -6 6 -1 11 2
17 5 13 3 -3 4 -12 1 -19z m1643 0 c10 -6 7 -7 -10 -2 -14 3 -32 11 -40 16
-10 6 -7 7 10 2 14 -3 32 -11 40 -16z m-1653 -67 c0 -11 -5 -18 -9 -15 -4 3
-5 11 -1 19 7 21 12 19 10 -4z m1693 -41 c0 -5 -4 -10 -10 -10 -5 0 -10 5 -10
10 0 6 5 10 10 10 6 0 10 -4 10 -10z m-14 -67 c-4 -27 -9 -59 -11 -73 -7 -48
-19 -165 -18 -187 1 -13 -3 -23 -8 -23 -5 0 -9 3 -9 8 1 25 27 240 35 277 2
11 4 26 4 33 1 6 4 12 7 12 3 0 3 -21 0 -47z m-1699 5 c-3 -8 -6 -5 -6 6 -1
11 2 17 5 13 3 -3 4 -12 1 -19z m1668 -308 c3 -5 1 -10 -4 -10 -6 0 -11 5 -11
10 0 6 2 10 4 10 3 0 8 -4 11 -10z m1 -58 c0 -20 3 -53 7 -72 4 -23 4 -30 -3
-20 -11 20 -22 130 -12 130 4 0 7 -17 8 -38z m-341 -91 c-3 -3 -18 -6 -33 -8
-22 -2 -23 -1 -7 6 22 9 48 10 40 2z m125 3 c0 -8 -19 -13 -24 -6 -3 5 1 9 9
9 8 0 15 -2 15 -3z m104 -2 c3 -5 -1 -9 -9 -9 -8 0 -12 4 -9 9 3 4 7 8 9 8 2
0 6 -4 9 -8z m-299 -11 c-11 -9 -118 -32 -144 -30 -9 0 18 9 59 19 93 22 96
22 85 11z m-166 -35 c-12 -10 -59 -15 -59 -6 0 6 3 9 8 7 4 -3 16 -1 27 3 19
7 34 5 24 -4z m-79 -15 c-8 -6 -36 -13 -62 -16 -26 -4 -48 -11 -48 -17 0 -5
-5 -6 -11 -3 -15 10 -6 15 53 30 69 17 89 18 68 6z m303 -318 c-7 -2 -21 -2
-30 0 -10 3 -4 5 12 5 17 0 24 -2 18 -5z m-93 -9 c0 -8 -19 -13 -24 -6 -3 5 1
9 9 9 8 0 15 -2 15 -3z m37 0 c-3 -3 -12 -4 -19 -1 -8 3 -5 6 6 6 11 1 17 -2
13 -5z m-157 -18 c0 -2 -7 -7 -16 -10 -8 -3 -12 -2 -9 4 6 10 25 14 25 6z
m4960 -36 c0 -16 -4 -30 -8 -30 -5 0 -7 14 -4 30 2 17 6 30 8 30 2 0 4 -13 4
-30z m-5123 -15 c0 -8 -4 -12 -9 -9 -5 3 -6 10 -3 15 9 13 12 11 12 -6z m-92
-21 c-9 -9 -19 -13 -23 -10 -3 4 0 11 8 16 24 15 33 11 15 -6z m107 -136 c16
-21 26 -38 21 -37 -13 1 -72 86 -65 94 4 3 8 0 11 -7 2 -7 17 -30 33 -50z
m2288 32 c0 -5 -5 -10 -11 -10 -5 0 -7 5 -4 10 3 6 8 10 11 10 2 0 4 -4 4 -10z
m625 -141 c-8 -19 -13 -25 -9 -14 3 11 9 36 12 55 5 25 7 29 10 14 2 -12 -4
-37 -13 -55z m-2870 43 c-3 -3 -11 0 -18 7 -9 10 -8 11 6 5 10 -3 15 -9 12
-12z m5038 -53 c-6 -6 -7 3 -4 23 4 28 6 29 9 9 2 -13 0 -27 -5 -32z m-5007
-1 c23 -45 12 -43 -15 4 -12 22 -18 37 -12 34 6 -4 18 -21 27 -38z m5001 -60
c-3 -8 -6 -5 -6 6 -1 11 2 17 5 13 3 -3 4 -12 1 -19z m-4953 -30 c18 -27 22
-39 13 -44 -7 -4 -9 -4 -5 1 4 4 -4 22 -17 40 -14 17 -25 36 -25 40 0 11 4 6
34 -37z m4956 -26 c0 -10 6 -24 13 -32 10 -12 9 -12 -4 -2 -19 14 -32 52 -18
52 5 0 9 -8 9 -18z m-4917 -42 c3 -11 1 -18 -4 -14 -5 3 -9 12 -9 20 0 20 7
17 13 -6z m61 -86 c3 -8 2 -12 -4 -9 -6 3 -10 10 -10 16 0 14 7 11 14 -7z m37
-31 c13 -16 12 -17 -3 -4 -17 13 -22 21 -14 21 2 0 10 -8 17 -17z m40 -40 c13
-16 12 -17 -3 -4 -10 7 -18 15 -18 17 0 8 8 3 21 -13z m2014 -143 c-3 -5 -12
-10 -18 -10 -7 0 -6 4 3 10 19 12 23 12 15 0z m-431 -78 c2 -4 -5 -9 -17 -9
-17 -2 -19 0 -7 7 18 12 18 12 24 2z m-1544 -1878 c0 -2 -9 0 -20 6 -11 6 -20
13 -20 16 0 2 9 0 20 -6 11 -6 20 -13 20 -16z m31 -11 c13 -16 12 -17 -3 -4
-17 13 -22 21 -14 21 2 0 10 -8 17 -17z m124 -44 c22 -10 29 -16 15 -12 -14 3
-43 14 -65 24 -22 11 -29 16 -15 13 14 -3 43 -15 65 -25z m75 -29 c0 -5 -7 -7
-15 -4 -8 4 -15 8 -15 10 0 2 7 4 15 4 8 0 15 -4 15 -10z"/>
<path d="M9497 8333 c-4 -6 -3 -21 1 -34 6 -16 10 -18 14 -8 7 19 -6 56 -15
42z"/>
<path d="M8767 4253 c-4 -3 -7 -18 -7 -31 0 -32 13 -20 15 13 1 28 1 28 -8 18z"/>
<path d="M8758 4165 c-3 -14 -1 -25 3 -25 5 0 9 11 9 25 0 14 -2 25 -4 25 -2
0 -6 -11 -8 -25z"/>
<path d="M8576 3525 c-11 -8 -15 -15 -10 -15 6 0 19 7 30 15 10 8 15 14 9 14
-5 0 -19 -6 -29 -14z"/>
<path d="M8515 3480 c-3 -5 -2 -10 4 -10 5 0 13 5 16 10 3 6 2 10 -4 10 -5 0
-13 -4 -16 -10z"/>
</g>
</svg>
