<svg xmlns="http://www.w3.org/2000/svg" width="400" height="600"><path fill="none" d="M157.45 464.65zm-2.5 64.7c3.2-.6 6.4-1.1 9.5-1.7-1.2.2-2.3.4-3.4.6-2.1.3-4.1.7-6.1 1.1zm-29.1-3.6c-.6-.3-1.3-.4-2-.5l2 .5zm31.9-62.2c-.1-.1-.2-.1-.3-.2-1.3-.2-2.6-.4-3.9-.5 1.3.2 2.6.3 3.9.5.1 0 .2.1.3.2zm149.8-18.5c.1-.2.2-.4.3-.7 0 .2-.2.4-.3.7zm-157.8 17.4c.6 0 1.3.1 1.9.2-.6-.1-1.3-.2-1.9-.2-5.9-.4-11.7-.5-17.6-.9-1.1-.1-2.2-.1-3.3-.1 1.1 0 2.2.1 3.3.1 5.9.4 11.7.5 17.6.9zm157.9-17.4s-.1 0 0 0c-.1 0 0 0 0 0zm-130.3 110.2c0-.1 0-.2-.1-.3.1 0 .1.2.1.3zm-.1-.4l-.2.2c.1 0 .2-.1.2-.2zm-11-188.2c-.1-.1-.1-.2-.2-.3.1.2.2.2.2.3zm-8.1 97.7c.1-.1.2-.1.2-.2 0 .1-.1.1-.2.2zm-20.7 73.2c.1.2.1.3.1.5 0-.2 0-.3-.1-.5zm3.5-7.3c1.8.4 3.6.6 5.4.6-1.8 0-3.6-.2-5.4-.6zm-1.9 17.3zm1.7 7.3v1c0-.3-.1-.6 0-1 .2-1.7-.4-3.1-1-4.5.6 1.4 1.2 2.9 1 4.5zm-30.8-93.8c-1.4-.1-2.7-.3-4.1-.6 1.3.3 2.7.5 4.1.6zm28.3 80.3c.5 2.3.9 4.5 1.4 6.9-.5-2.3-.9-4.6-1.4-6.9zm-8.4-175.8c1.8-.1 3.6-.6 5.3-1.2-1.8.5-3.5 1.1-5.3 1.2zm9.9 183.1zm-61.4-242c0-.5-.1-1-.1-1.6 0 .6.1 1.1.1 1.6zm129.7-20.1h-3.2 3.2zm-133.3-10.3c.6.3 1.2.5 1.7.6-.6-.2-1.2-.4-1.7-.6zm22.7 48.9c-.5 0-1-.1-1.4-.1.5 0 1 0 1.4.1zm-60.8 30.4l-.9-7.9.9 7.9zm142.3 197.8c-.6.5-1.1 1-1.7 1.5.6-.5 1.1-1 1.7-1.5zm55.3-47c-.1.1-.3.2-.4.4-.3.2-.6.5-.9.7.3-.2.6-.5.9-.7.2-.1.3-.2.4-.4zm-2.8 2.4h.3-.3zm22-17.8c-.2.2-.3.5-.5.7.2-.2.3-.5.5-.7zm-21 17.7c.2-.2.5-.3.7-.5-.3.2-.5.3-.7.5zm105.4-215.1c.2-.1.4-.1.6-.3-.2.2-.4.2-.6.3zm-32-33.3c1.1-.7 2.2-1.4 3.5-1.9-1.3.6-2.4 1.2-3.5 1.9zm-2.5 1.9c.4-.4.9-.8 1.3-1.1-.4.2-.9.6-1.3 1.1zm55.6 98.2c-.2 1-.6 1.9-1 2.8.4-.8.8-1.8 1-2.8zm-194.3-99.3c1.1 2.1 2.2 4.1 3.4 6.1-1.2-2-2.3-4-3.4-6.1zm50.3 262.1l3.2-2.6c-1.1.8-2.2 1.7-3.2 2.6zm-2.9 1.6c.1.1.2.3.4.4-.1-.1-.3-.2-.4-.4zm78.9-241.7c.6-.6 1.1-1.2 1.6-1.8-.5.7-1.1 1.3-1.6 1.8zm-129.9 80.9c-.1 0-.2-.1-.3-.1.1.1.2.1.3.1zm-56 157.3c-.3-.1-.7-.1-1 0 .4-.1.7 0 1 0zm-57.6-250.6c-.5 0-.9.3-1 .9.1-.6.4-.9 1-.9zm61.1 251.9c-1-.4-1.8-.6-2.5-.9.4.2 1.4.6 2.3 1 .1 0 .2 0 .2-.1zm-35.2-47.3c.4 2.1.8 4.2 1.2 6.4-.4-2.2-.8-4.3-1.2-6.4zm10 28.1zm129.4-86.7c-.4.2-.9.4-1.3.5.4-.2.9-.3 1.3-.5 2.3-1 4.4-2.2 6.5-3.5.1 0 .1-.1.2-.1-.1 0-.1.1-.2.1-2.1 1.3-4.2 2.5-6.5 3.5zm-79.3-50.6c.4-.1.7-.2 1.1-.4.6-.2 1.3-.4 1.9-.6-.6.2-1.3.4-1.9.6-.4.2-.7.3-1.1.4zm35.3 60.1zm27.7-4.2c1.5-.4 3-.9 4.5-1.4-1.5.5-3 1-4.5 1.4zm-71.4-56.1c.5.1 1 .2 1.5.4.3.1.5.1.8.2-.3-.1-.5-.1-.8-.2-.5-.1-1-.3-1.5-.4zm-23.6 14.5c-2.9.3-5.8.7-8.6 1.2l-1.6.3 1.6-.3c2.8-.5 5.7-.9 8.6-1.2zm1.6 36.2c.3.1.5.2.8.2 1.2.4 2.5.7 3.8 1.1-1.3-.3-2.5-.7-3.8-1.1-.3-.1-.6-.1-.8-.2zm19.9-34.4c4.9.5 9.8.6 14.7 1.2 3.5.4 7 .9 10.4 1.4-3.5-.5-7-1-10.4-1.4-4.9-.5-9.8-.7-14.7-1.2-4.7-.5-9.4-1.2-14.1-1.7l-2-.3c.7.1 1.4.3 2 .3 4.7.6 9.4 1.3 14.1 1.7zm24.5-146.8c-.3-.3-.6-.5-.9-.7.2.1.3.3.5.4.2.1.3.2.4.3zm32.8 153c4.4 1 8.9 1.7 13.4 2.1 5.7.5 11.3 1.7 16.8 3 2.7.6 5.4 1.3 8.1 1.6-2.7-.4-5.4-1-8.1-1.6-5.6-1.3-11.1-2.4-16.8-3-4.6-.4-9-1.1-13.4-2.1-3.8-.9-7.6-1.1-11.5-1.3l-4.4-.3 4.4.3c3.8.2 7.6.5 11.5 1.3zm46 7.8c-.2-.3-.5-.5-.7-.7-.1-.1-.3-.2-.4-.3.1.1.3.2.4.3l.7.7zm-2.5-1.5c-.2 0-.5 0-.7.1-.3.1-.6.1-.9.2.3-.1.6-.1.9-.2.2 0 .4-.1.7-.1zm4.2 6.3zm-161.3-56.5c0-.1-.1-.2-.1-.3-.2 0-.3-.1-.5-.1.2 0 .3.1.5.1 0 .1 0 .2.1.3zm-7.3 44.4c.2 1.5.5 3 1 4.4-.5-1.4-.8-2.9-1-4.4-.6-3.6-1.2-7.2-1.5-10.8-.1-.9-.1-1.8-.1-2.7 0 .9 0 1.8.1 2.7.3 3.6.9 7.2 1.5 10.8zm93.3-26.6h1.5-1.5zm-89.7 38.3c0-.2 0-.5-.1-.7-.8-2.2-1.8-4.4-2.6-6.7.8 2.3 1.7 4.4 2.6 6.7.1.2.2.5.1.7zm-.4.6c.1 0 .2 0 .2-.1l.1-.1s0 .1-.1.1c0 .1-.1.1-.2.1zm-2-42.5l-1.2 4.1c-.3 1.3-.6 2.5-.8 3.8.2-1.3.5-2.5.8-3.8.4-1.3.8-2.7 1.2-4.1.4-1.2.6-2.4 1.2-3.5l1.8-3.6-1.8 3.6c-.5 1.2-.8 2.4-1.2 3.5zm18.8 79.5c.5 1.4 1.1 2.8 1.7 4.3-.6-1.4-1.1-2.8-1.7-4.3-1.3-3.5-2.6-7-4-10.5-.2-.5-.6-1-1-1.5.3.5.7 1 1 1.5 1.4 3.6 2.7 7.1 4 10.5zm1.5 5.7c.1 0 .1 0 .2.1 0-.1.1-.3.2-.4-.1.1-.1.3-.2.4 0 0-.1-.1-.2-.1zm15.1-79.6c.3-.1.6-.1 1-.1.5-.1 1-.1 1.5-.1-.5 0-1 .1-1.5.1-.4 0-.7 0-1 .1zm0-.9c-2.2.4-4.5.7-6.7 1.2-1.1.2-2.2.5-3.3.7 1.1-.2 2.2-.5 3.3-.7 2.2-.5 4.5-.8 6.7-1.2zm7.8-1h-1 1zm-18.7 4.5c-1.3.3-2.5.7-3.8.9-.2 0-.4.1-.6.1.2 0 .4 0 .6-.1l3.8-.9 5.1-1.2c.1 0 .3-.1.4-.1-.1 0-.3.1-.4.1l-5.1 1.2zm-14.3 100.2l.3 1.4c-.1-.5-.2-1-.3-1.4zm41.4-104.7c-.7 0-1.4-.1-2.1-.1h-6.2 6.2c.6.1 1.4.1 2.1.1zm15.2 3c.8.2 1.6.2 2.4.2-.8 0-1.6 0-2.4-.2-2.1-.4-4.1-.8-6.2-1.4l-3.4-.9c1.2.2 2.3.5 3.4.9 2 .6 4.1 1 6.2 1.4zm-52.9 121c0 .2.1.4.1.6 0-.2 0-.4-.1-.6zm70-124c.7-.1 1.3-.1 2-.1-.6 0-1.3 0-2 .1h-.3.3zm87 147.2c-.1-.1-.1-.2-.2-.3.1.1.1.2.2.3zm27.4-22.6zm24.4-20.2c-.5.4-1.1.7-1.7 1.1.5-.3 1.1-.7 1.7-1.1zm3.4-2.9zm4.1-5.4c1.2-.8 2.3-1.6 3.5-2.4-1.2.8-2.4 1.6-3.5 2.4zm16.9-13.4l.1-.1c0 .1-.1.1-.1.1zm-35.7 31.2c.1-.1.2-.1.2-.2l-.2.2zm-8.1 6.6zm16.8-13.8zm-6.4 5.2l-.1-.1.1.1zm11.9-9.7zm75.8-292.1l.2-.2 1.1 1.1c-.4.3-.7.5-.9.7l-.1-.1.1.1c.2-.2.5-.4.9-.7l-1.1-1.1-.2.2zm-122.4-140.4c-.6.1-1.3.3-1.9.4 1.2 1 1.6.8 1.9-.4zm-192.9 166.1c.6.2 1.2.3 1.8.5-.6-.2-1.2-.3-1.8-.5zm268 235.1c-.2.5-.1.8.4 1.1-.5-.3-.6-.6-.4-1.1zm23.2-25.2c.1.4.1.9.1 1.3 0-.4 0-.8-.1-1.3zm-30.1 36.9s.1 0 0 0c.1 0 0 0 0 0zm21-21.1c-.3.2-.7.4-1 .5.4-.2.7-.4 1-.5zm8.7-6.9c.1.1.2.2.2.3-.1-.1-.2-.2-.2-.3zm-65.7 59.4l.2-.2c-.1.1-.1.2-.2.2zm-13.3 10.3c-.7.5-1.4 1.1-2 1.6-.5.4-1 .8-1.5 1.3.5-.4 1-.9 1.5-1.3.6-.5 1.3-1.1 2-1.6zm-4.1 4c.1 0 0 0 0 0zm-5.6 4.6c.3-.2.5-.4.8-.6-.3.2-.6.4-.8.6zm22.1-19.1c-2.7 2.2-5.2 4.6-7.9 6.9l-1.6 1.3 1.6-1.3c2.7-2.2 5.2-4.6 7.9-6.9zm-18.1 15.9s0-.1 0 0c0-.1 0 0 0 0zm-8.1 6.6zm8.9-7.8h.3-.3z"/><path d="M177.25 554.85l-.2.2c-.2.3-.4.5-.6.8-.7.6-1.4 1.3-2.1 1.9-1.6 1.4-3.2 2.9-4.8 4.3-.7.6-1.4 1.3-2.2 1.9-2.7 2.5-5.3 5-7.9 7.5l.4.4s.2.2.3.4h.2c.7-.8 1.3-1.7 2-2.4 4.6-4.4 9.2-8.7 13.7-13.1.4-.4 1.3-.6 1.3-1.4v-.1c0-.1 0-.3-.1-.4zm0 0zm-8.5-128.7c5.3-.5 10.7-.8 16-1.6 4-.6 7.9-1.6 11.8-2.7 1.5-.4 3-.9 4.5-1.4l4.5-1.5 1.8-.6c.9-.3 1.8-.6 2.8-.9.5-.2.9-.3 1.4-.5.5-.2.9-.3 1.3-.5 2.3-1 4.4-2.2 6.5-3.5.1 0 .1-.1.2-.1h.1c3.7-2.3 6.3-5.6 7.9-9.6.3-.9.5-1.7.6-2.5 0-.4 0-.9-.1-1.3v-.3c0-.2-.1-.3-.1-.5 0-.1-.1-.3-.1-.4-.1-.1-.1-.3-.2-.4-.1-.3-.2-.5-.4-.7-.1-.1-.1-.2-.2-.3-.1-.2-.3-.4-.4-.5-.1-.1-.1-.2-.2-.2-.2-.3-.5-.5-.7-.7-.1-.1-.3-.2-.4-.3-.2-.2-.5-.3-.7-.4-.2-.1-.4-.1-.6-.1s-.5 0-.7.1c-.3.1-.6.1-.9.2-1.2.2-2.3.3-3.5.2h-.1c-2.7-.4-5.4-1-8.1-1.6-5.6-1.3-11.1-2.4-16.8-3-4.5-.4-9-1.2-13.4-2.1-3.8-.9-7.6-1.1-11.5-1.3l-4.4-.3-4.3-.3-2.9-.3c-3-.4-6-.8-9-1.3-3.5-.5-7-1-10.4-1.4-4.9-.6-9.8-.7-14.7-1.2-4.7-.5-9.4-1.2-14.1-1.7l-2-.3c-.3-.1-.7-.1-1-.1h-1l-3.4.3c-2.9.3-5.8.7-8.6 1.2l-1.6.3c-.5.1-1.1.3-1.6.4-2.1.6-4.2 1.3-6.3 1.9-1.1.3-2.2.5-3.3.6-.2 0-.4.1-.7.1l-2 .6c-.2.1-.3.1-.4.2s-.3.2-.4.3c.2.3.4.6.6.8.9.8 1.8 1.5 2.7 2.2.3.3.6.5.8.8 1.8 2 3.2 4.2 4.4 6.5.4.8.8 1.5 1.2 2.3 1.7 3.3 3.4 6.5 5.5 9.5.4.6.9 1.2 1.3 1.7.5.6.9 1.1 1.5 1.6 1 1.1 2.1 2 3.2 2.9 1.2.9 2.8 1.4 4.4 1.9.3.1.5.2.8.2.3 0 .5.2.8.2 1.2.4 2.5.7 3.8 1.1l1.2.3 3.2.9c.2.1.4.1.6.2 3 .8 5.9 1.9 8.9 2.4l8 1.2c2.7.3 5.3.6 8 1 3 .4 6 .5 9.1.8 6.2.6 12.5 1.3 18.7 2v-.3h2.7c-.2-.1.1-.2.4-.2zm-3.6-1.1v.5c-2.6-.3-5.3-.7-7.9-1-.3 0-.6 0-1-.1-2.5-.3-5-.5-7.5-.8-1-.1-2.1-.2-3.1-.2-5-.4-10-.5-14.9-1.2-2.8-.4-5.7-.4-8.4-1.5-1.7-.7-3.5-.8-5.3-1.3-.7-.2-1.4-.4-2-.6-.3-.1-.6-.3-.9-.4-2.5-.1-4.6-1.2-6.9-1.9-2.4-.8-4.8-1.4-7.1-2.2-1.8-.6-3.3-1.8-4.5-3.4-.3-.4-.5-.8-.9-1.1-2-1.4-2.8-3.7-4.1-5.7-.7-1.1-1.4-2.3-2-3.5-1.4-2.6-2.7-5.3-4.3-7.8-1.3-2-3.1-3.8-4.7-5.7-.5-.6-.7-1 .2-1.3 1.1-.3 2.1-.6 3.2-.8l2.4-.6c.9-.2 1.8-.4 2.6-.6.4-.1.8-.2 1.1-.3.9-.2 1.7-.5 2.6-.7.2-.1.5 0 .7-.1 3.9-1.8 8.2-1.5 12.3-1.8 1.4-.1 2.8.4 4.2.6.2 0 .4.1.6.1 2.9.4 5.7.8 8.6 1.1 2.3.3 4.7.4 7 .5 3.5.2 6.9.5 10.4.7.8.1 1.6.3 2.5.4 2.1.2 4.1.3 6.2.6 3.5.5 7 1.3 10.6 1.6 5 .5 10 1.6 15 1.1 2.3-.2 4.6.3 6.9.8 3.5.8 7 1.6 10.6 2.1 3.4.5 6.9.6 10.3 1.1 3 .4 5.9 1.2 8.8 1.8 2.2.4 4.4.8 6.5 1.2.3.1.7 0 .9.2 1.7 1.1 3.7.7 5.6.8 1.1.1 2.2 0 3.2 0 2.7 0 4.8 2.1 4.2 4.9-.4 1.8-1.1 3.4-1.9 5.1-1.2 2.5-3.1 4.3-5.3 5.9-2.4 1.7-5.1 3-7.9 4-1.9.7-4 1.1-5.8 2.2-1.4.8-3.1 1-4.7 1.5-1.7.5-3.4 1.1-5 1.6-.1 0-.3.2-.4.2-1.8.4-3.7.9-5.5 1.3-.2 0-.4 0-.6.1-.5.3-1 .5-1.5.6-.7.1-1.3.2-1.9.3-1 .1-2.1.1-3.1.2-4.1.5-8.1 1-12.2 1.3-2 .3-4 .2-5.9.2zm-98.7-80.9c-.2 0-.3-.1-.5-.1-.4 1.2-.7 2.4-1.3 3.5-1.7 3.5-3.5 6.9-5.1 10.5-.8 1.9-1.2 4-1.7 6l-.3 1.4c-.3 1.5-.7 3-.7 4.5 0 2-.1 4-.1 6v3s0 2 .1 3c0 .5.1 1.1.1 1.6.1.8.3 1.6.4 2.4 0 .2.1.3.1.5.1.4.2.7.2 1.1.5 2.4 1 4.7 1.7 7 .6 1.9 1.5 3.8 2.2 5.7.2.5.3.9.8.8.1 0 .2 0 .2-.1l.1-.1c.1-.1.1-.3.1-.4 0-.2 0-.5-.1-.7-.8-2.2-1.8-4.4-2.6-6.7-.5-1.4-.8-2.9-1-4.4-.6-3.6-1.2-7.2-1.5-10.8-.1-.9-.1-1.8-.1-2.7 0-.9 0-1.8.1-2.7 0-.6.1-1.2.1-1.8l.3-2.4.3-1.9c.2-1.3.5-2.5.8-3.8l1.2-4.1c.4-1.2.6-2.4 1.2-3.5l1.8-3.6c.6-1.2 1.3-2.4 1.9-3.5.3-.5.5-1 .8-1.5.2-.4.4-.8.4-1.3v-.5c0-.2 0-.3-.1-.5.3.3.3.2.2.1zm91.6 119.7l-.3-.3c-.1-.1-.2-.1-.3-.2-1.3-.2-2.6-.4-3.9-.5-.6-.1-1.3-.2-1.9-.2-.6 0-1.3-.1-1.9-.2-5.9-.4-11.7-.5-17.6-.9-1.1-.1-2.2-.1-3.3-.1h-11.6c-1.1 0-2.2 0-3.3-.1l-4.1-.3c-1.4-.1-2.7-.3-4.1-.6h-1.1c-.2 0-.4 0-.5.2 0 0-.1.1-.1.2v.3c0 .8.6.8 1.2.8h2l21.1.9c6.3.3 12.6.4 18.9.8 3.5.2 6.9.8 10.3 1.1h.2c.2-.1.3-.2.5-.3.1-.1.2-.1.2-.2l-.4-.4zm42 72c3.9-3.3 7.7-6.6 11.6-9.9-3.9 3.2-7.7 6.6-11.6 9.9zm-13.4 10.8c.1.1.2.3.3.4-.1-.2-.2-.3-.3-.4zM212.45 525.25c-.1-.1-.2-.3-.4-.4-8.5 7.3-17.1 14.4-25.4 21.8l25-20.7c.3-.3.5-.5.8-.7zm-131.4-82.8c-.5-1.4-1.1-2.8-1.7-4.3-1.3-3.5-2.6-7-4-10.5-.2-.5-.6-1-1-1.5-.2.1-.3.1-.5.2 0 .4 0 .8.1 1.2.4 1.1.8 2.3 1.2 3.4 1.3 3.3 2.6 6.7 3.9 10 .1.2.1.4.2.6.2.6.4 1.2.7 1.8.1.2.6.3.9.5.1 0 .1 0 .2.1 0-.1.1-.3.2-.4 0-.1 0-.1.1-.2v-.2c-.1-.2-.2-.5-.3-.7zm177.8 44.5c.4-.4.8-.8 1.3-1.2.2-.2.4-.4.6-.5.3-.3.6-.5.9-.8.2-.1.3-.3.5-.4.5-.4 1.1-.8 1.6-1.2l7.9-6.5.2-.2c.1-.1.2-.1.3-.2l2.1-1.7-.1-.1c-.2 0-.3.1-.5.1-.3.1-.6.2-.9.4-.1.1-.3.2-.4.3l-1.2.9c-.1.1-.2.2-.4.3-2.7 2.2-5.2 4.6-7.9 6.9l-1.6 1.3-2.9 2.3c-.7.5-1.4 1.1-2 1.6-.5.4-1 .8-1.5 1.3-.5.4-.9.9-1.4 1.3h.3c.2 0 .4-.1.5-.1l.1-.1c.2-.2.3-.4.5-.5h.1c.2-.1.3-.3.5-.4.1 0 .1-.1.2-.1.1-.1.3-.2.4-.3.1-.1.3-.2.4-.3.1 0 .1-.1.2-.1l2.2-2zm-4.4 3.6zm13.2-10.6c.4-.3.8-.7 1.3-1-.5.4-.9.7-1.3 1zm-23 18.7c1-.9 2.1-1.8 3.1-2.7.3-.3.6-.5.9-.7.3-.2.5-.4.8-.6l3.2-2.6v-.1c.1-.1.1-.2.2-.3.1-.2.3-.5.5-.7-.5.4-1 .7-1.5 1.1-.7.5-1.4 1-2.1 1.6-1.2 1-2.2 2.2-3.4 3.1-2.4 1.9-4.8 3.7-7.2 5.5-1.7 1.3-3.3 2.7-4.9 4.1-.1.1-.3.2-.4.4-.3.2-.6.5-.9.7-.5.4-1 .8-1.5 1.3h.8c.1 0 .1-.1.2-.1.2-.2.5-.3.7-.5l5.2-4.3.3-.3c.1-.1.3-.2.4-.3l5.6-4.6zm-6.3 5.2zm-17 13.4c-.2.2-.5.4-.7.5h-.1c-.2.2-.5.4-.7.5l-.1.1c-.2.2-.4.3-.6.5l-.2.2c-.2.1-.4.3-.5.4-.1.1-.2.2-.3.2-.2.1-.3.3-.4.4l-.3.3c-.1.1-.2.2-.4.3l-.3.3-.3.3-.3.3-.2.2c-.1.1-.2.2-.2.3l-.2.2c-.1.1-.1.2-.2.3l-.1.1c-.1.1-.1.2-.1.3l3.2-2.6 6.1-5.1c-.8.4-1.9 1.1-3.1 2zm3.1-1.8c-.7.6-1.4 1.1-2.1 1.7.7-.6 1.4-1.1 2.1-1.7zm-85.1 34.9c.1.4.1.8.2 1.2-.1-.3-.1-.7-.2-1.2zm1.6 9.7c.1.4.3.8.4 1.2-.1-.4-.2-.8-.4-1.2zm-.8-5.8zm1.6 7.7l-.3-2.5c-.1-.8-.3-1.6-.4-2.5v-.1c-.1-.3-.1-.6-.2-1s-.1-.7 0-1c.2-1.7-.4-3.1-1-4.5h-.2l.7 4v.2c.1.2.1.5.2.7v.1c0 .3.1.5.1.8l1 5.1c-.1.2 0 .4.1.7zm41.9-12.5c-.1.1-.2.1-.3.2.1-.1.2-.1.3-.2zm-3.2 3.6c.9-.7 1.7-1.4 2.6-2.2.3-.2.5-.5.7-.7-.2.3-.5.5-.7.7-.9.7-1.7 1.4-2.6 2.2zm-2.4 1.7c.1 0 .2-.1.3-.1-.1 0-.2 0-.3.1zM183.15 549.85l-1 .7c-1.1.9-2.1 1.9-3.2 2.8-.6.5-1.1 1-1.7 1.5.2-.1.4-.1.6-.1h.1l5.4-5.1c0 .1-.1.1-.2.2zm134.3-117.2c0-.1-.1-.1-.1-.2 0 .1.1.2.1.2.7-.5 1.4-1.1 2.1-1.6l.3-.3-.3.3c-.6.5-1.4 1.1-2.1 1.6zm5-4.3c-.4.3-.8.5-1.2.8-.1.1-.2.1-.3.2-.8.5-1.6 1.1-2.3 1.7-.1.1-.2.2-.3.2-.4.3-.7.7-1.1 1 0 .1.1.1.1.2l5.1-4.1zm0 0zm-183.4 119.2c-.2-.5-.4-1.1-.5-1.7.1.6.3 1.2.5 1.7zm0 0l.3.6c.1.2.2.3.3.5 0-.1 0-.2-.1-.3-.5-2.4-.9-4.7-1.4-6.9 0 .3-.1.6-.1.9l1 5.2zm-.9-5.2zm148-77.8l.5-.6c-.2.1-.5.2-.7.3h-.1c-.2.1-.5.2-.7.4h-.1c-.2.1-.4.3-.6.4-1.1.8-2.1 1.8-3 2.8 0 0 .1 0 .1-.1.6-.4 1.2-.7 1.7-1.1 1-.6 1.9-1.4 2.9-2.1zm-54.9 44.7c-1.6 1.1-3.1 2.2-4.7 3.3.1.1.1.2.2.3.1.1.1.2.2.3.7-.5 1.3-1 2-1.5l2.5-2.1c-.1-.1-.1-.2-.2-.3zM228.95 511.55c.3-.3.7-.5 1-.8-.4.3-.7.6-1 .8zm51.7-42.5c.1-.2.2-.3.3-.5.1-.1.2-.3.3-.4-1.7 1.1-3 2-3.7 2.7-.1.1-.2.3-.3.4l-.1.1c-.1.1-.1.2-.2.2-.1.1-.1.2-.1.3.1 0 .2-.1.3-.1.1 0 .2-.1.3-.1l3.2-2.6zm-3.3 2.7c.5-.3.9-.7 1.4-1-.4.3-.9.7-1.4 1zm2.8-2.1c-.1.1-.2.2-.4.3.1-.1.2-.1.4-.3zm95.1-283.2c.6-.9.5-3.2-.2-4.2-.5 1.4-.4 2.7.2 4.2zm-46.5 237.4c-.3.2-.7.4-1 .5 0 0 0 .1.1.1l.8-.5.1-.1zm-.8.7l.1.1c.6-.1 1-.3 1.5-.6-.4.3-.9.5-1.5.6-.1 0-.1 0-.1-.1zm2.4-1.3c0-.1-.1-.1-.1-.2l-.6.3.6-.3s0 .1.1.2z"/><path fill="#6A3C22" d="M307.95 444.35zm-.2.6h-.1.1z"/><path d="M110.45 523.45l-2.1-.8c-1-.4-1.9-.8-2.3-1-.2-.1-.3-.1-.5-.2h-.1c-.2-.1-.3-.1-.5-.1-.3-.1-.7-.1-1 0-1.2-.7-3.1-1.7-3.7-2-.7-.3-1.5-.7-2.1-1.1-.6-.4-1.2-.8-1.7-1.2l1.7 1.8 8.1 4 6.7 1.6 1.8.2v-.1c-.7-.2-2.9-.8-4.3-1.1zm-77.2-263.3c-.1-.3-.2-.5-.2-.8 0 .3.1.6.2.8zM378.55 203.35v-1.6c0-.3 0-.7-.1-1-.1-.5-.3-1-.7-1.4-.1-.1-.1-.3-.1-.5v-.6c-.1-1.1-.1-2.1-.2-3.2s-.1-2.1-.2-3.2c0-.5-.1-1.1-.2-1.6s-.2-1-.3-1.6c-.1-.3-.1-.7-.2-1 0-.1 0-.1-.1-.2 0-.1-.1-.2-.1-.2h-.3c-.3 0-.6.1-.9 0-.4-.2-.7-.5-1-.9-.3-.4-.5-.9-.6-1.4-.1-.2-.1-.5-.1-.8v-.7c.1-.5.3-.9.5-1.3.2-.2.3-.5.4-.8.1-.3.1-.7.1-1.1 0-.6-.1-1.2-.2-1.6-.1-.1-.1-.3-.2-.4-.3-.4-.5-1-.6-1.5-.2-.9-.4-1.8-.6-2.8s-.4-1.9-.6-2.8c-.1.1-.3.1-.4.2l-1.4.7c.1-.3.1-.6.1-.8 0-.2.1-.4.2-.5 1.3-1.3.7-2.6.3-4-.2-.6-.4-1.1-.5-1.7-.3-1.4-.7-2.9-1-4.3-.1-.5-.2-1-.3-1.4-.1-.5-.3-1-.4-1.4-.3-1-.6-1.9-.8-2.9-.1-.5-.3-1-.4-1.5-.1-.2-.1-.5-.1-.7 0-.5 0-1-.1-1.4 0-.2-.1-.5-.1-.7l-.3-1.1c-.4-1-.8-2.1-1.2-3.1-1.1-2.7-2.3-5.5-3.5-8.2l-.9-1.8c-.3-.6-.6-1.2-.9-1.7-.6-1.1-1.2-2.3-1.8-3.4-.8-1.6-1.6-3.2-2.5-4.8-.3-.5-.6-1.1-.9-1.6-.7-1.3-1.5-2.6-2.3-3.8-.8-1.3-1.6-2.5-2.3-3.8-1.3-2.1-2.5-4.3-3.9-6.3l-.6-.9c-.8-1.1-1.6-2.3-2.4-3.4-2.4-3.4-4.8-6.8-7.4-10-4.6-5.8-9.3-11.5-14.3-16.9-3.1-3.4-6.4-6.6-9.9-9.6-1.4-1.2-2.8-2.3-4.3-3.4-.7-.5-1.5-1.1-2.3-1.6-1.4-1-2.9-1.9-4.3-2.8-1.5-.9-2.9-1.8-4.4-2.7-1.4-.8-2.8-1.4-4.2-2.3-1.7-1.1-3.2-2.7-5-3.6-.7-.4-1.4-.7-2.1-1.1-.7-.3-1.5-.7-2.2-1-1.5-.6-2.9-1.2-4.4-1.9-.4-.2-.7-.3-1.1-.5-.4-.2-.7-.3-1.1-.5l-1.5-.6c-1.5-.6-3-1.1-4.5-1.7-2-.8-3.9-1.8-5.8-2.8-2.8-1.5-5.6-3.1-8.3-4.7-1.8-1.1-3.3-2.5-5.2-3.4-.9-.5-1.8-.8-2.8-1.1-1-.3-1.9-.6-2.9-1-.5-.2-1-.6-1.5-.7-.1 0-.2 0-.3-.1-.3-.1-.6-.1-.9-.1s-.5.1-.8.4c-.1.1-.2.2-.2.3s-.1.1-.2.1c-.2.1-.6.1-.9.2 0 0-.1-.1-.1-.2s-.1-.2-.1-.2c.1-.1.3-.2.4-.3.1-.1.3-.2.4-.3.1-.1.2-.1.3-.2.1 0 .2-.1.3-.1v-.4c-1-.2-2-.3-3-.5-.4-.4-.9-.7-1.5-.8h-.8c-.1 0-.1 0-.2.1-.1 0-.2 0-.2.1-.1 0-.3.1-.4.2h-.1c-.1.1-.2.1-.3.1-.2.1-.4.1-.7.2-.1 0-.2.1-.3.1 0-.1-.1-.3-.1-.4.5-.2 1-.4 1.5-.7-.2-.2-.5-.3-.7-.4-.1 0-.2-.1-.3-.1-.1 0-.2-.1-.3-.1-1-.2-2-.4-3-.7-1-.3-2-.4-3-.7-.2 0-.4-.2-.5-.2-.4-.2-.9-.3-1.3-.4-.4-.1-.9-.1-1.3-.2h-.7c-.7 0-1.4.1-2.1.2-.3.1-.6.1-1 .1h-2.9c-.6 0-1.2-.2-1.8-.1l-4.2.6-4.2.6s-.1 0-.1.1l-.1.1v.2c0 .2.1.4.1.5h-4.3c-.2 0-.4 0-.6.1-.2 0-.4.1-.6.1-.1 0-.2.1-.4.1s-.3.1-.5.2l-.9.3c-.2 0-.3.1-.5.1-.5.1-1 .1-1.6.1h-1.8c.1.1.2.3.3.4l.6.6c.1.1.2.2.3.4-.8-.1-1.2-.1-1.7-.2s-.9-.4-1.4-.3c-1.3.2-2.5.3-3.8.5l-3.8.6h-.1c-1.1.3-2.1.5-3.2.8-.5.2-1.1.4-1.6.6-.2.1-.4.2-.5.2-.3.1-.7.1-1 .1h-1.7c-.4.1-.8.2-1.2.4-.1.1-.3.2-.4.3s-.4.2-.6.2h-.2l-5.8 1.2s0 .1-.1.2c.5.4 1 .7 1.5 1.1-.1.2-.1.4-.2.5-.2 0-.3-.1-.5-.1-.3 0-.7-.1-1-.2-.1 0-.3-.1-.4-.2-.5-.4-1.1-.5-1.6-.5s-1.1.2-1.6.3c-.7.2-1.4.5-2.2.7h-.7c-.1 0-.2 0-.2.1-.4.1-.8.3-1.2.4-.8.3-1.7.6-2.5.9-.4.2-.8.3-1.2.5-1.1.4-2.1 1-3.1 1.4.2.2.5.4.7.5.2.2.4.3.6.5 0 .1-.1.1-.1.2s-.1.1-.1.2l-.6-.3c-.2-.1-.4-.2-.5-.3-.3-.2-.5-.4-.8-.4h-.2c-.3 0-.7.2-1.1.7.2 0 .3.1.5.1s.3.1.4.2c.2.1.3.2.4.3l.4.4c-.2.1-.4.1-.6.2-.2.1-.4.1-.6.1s-.4-.1-.5-.3c-.1-.1-.1-.1-.1-.2-.1-.2-.3-.3-.4-.4s-.3-.1-.4-.2c-.3 0-.6.1-1 .2-.4.2-.7.3-1.1.5-.4.2-.8.3-1.1.5-1.6.9-3.2 1.7-4.8 2.6l-2.1 1.2-4.2 2.4c-.7.4-1.4.8-2.1 1.3-.8.5-1.6 1.1-2.4 1.6-2.3 1.6-4.6 3.4-7 5-2.5 1.8-5 3.7-7.5 5.5-.6.4-1.4.5-1.8 1-3.1 4.2-6.2 8.3-9.3 12.6-3.5 5-7 10-10.5 15.1-2.3 3.3-4.5 6.7-6.7 10.1-1.4 2.2-2.7 4.5-4.1 6.7l-4.8 7.8c-.6 1-1.2 2-1.9 3.1-.6 1-1.2 2.1-1.8 3.1s-1.1 2-1.6 3-1.1 2-1.6 3l-1.2 2.1-1.2 2.1c-.6 1.1-1.2 2.3-1.8 3.4s-1.2 2.3-1.8 3.4c-.2.4-.4.8-.7 1.3-.7 1.3-1.3 2.5-1.9 3.8-.6 1.3-1.7 2.4-1.5 4 .1.6.1 1.3.1 1.9 0 .3 0 .6-.1 1 0 .3-.1.6-.2.9-.1.5-.3 1.1-.4 1.6-.3 1.1-.7 2.1-1 3.2-.2.5-.4 1.1-.5 1.6-.5 1.3-.9 2.7-1.4 4-.5 1.3-1 2.7-1.4 4 0 .1-.1.2-.1.3s-.1.2-.1.3c-.1.2-.1.3-.2.5s-.1.3-.2.5l-.3.9c-.1.3-.1.7-.1 1.1s0 .7-.1 1.1c-.1.8-.1 1.7-.1 2.5 0 .6 0 1.2.1 1.8.1 1.8.5 3.7.9 5.5.1.2.1.4.2.6.2.6.6 1.1.9 1.6.1.1.1.2.2.4s.3.5.4.7c.1.2.2.5.3.7 0 .1.1.3.1.4.1.3.1.5.1.8v.4s0 .3-.1.5c0 .1.1.2.2.3 0 .1.1.1.1.2s.1.1.1.1v.3c0 .2 0 .5-.1.7 0 .1-.1.2-.2.2-.6.6-1.3 1.1-1.9 1.7-.6.5-1.3 1.1-2 1.6-.4.3-.7.6-1.1.8-.6.3-1.3.5-1.9.7-1.3.4-2.6.5-4 .7-.7.1-1.3.2-2 .4-.9.2-1.8.1-2.7.1-.4 0-.7 0-1 .1-.2 0-.3.1-.5.2-.5.2-.9.4-1.3.7-.4.3-.9.5-1.3.8-.8.6-1.7 1.2-2.5 1.8-.4.2-.8.5-1.2.5-.7.1-1.5.1-2.2.2h-.7v.3l1.1.8c0 .1 0 .2-.1.3h-.7c-.2 0-.5 0-.7-.1-.3-.2-.6-.3-.8-.3-.4-.1-.7 0-.9.2-.2.2-.3.4-.3.7 0 .1-.1.3-.1.5-.1.7-.1 1.5-.2 2.2 0 .7-.1 1.5-.1 2.2v17c0 .8 0 1.6-.1 2.4 0 .3-.1.6-.2.9-.1.6-.3 1.2-.4 1.8-.1.3-.1.6-.1.9 0 .5-.1.9-.3 1.3-.3.8-.8 1.4-1.5 1.7-.4.2-.8.3-1.3.4h-.2c-.2 0-.3.1-.3.1-.1.3-.2.6-.2.8l-.3.6c-.1.1-.6.1-.8 0-.1 0-.1-.1-.1-.1v-1.5c-.7 0-1.5-.1-2.3-.1s-1.5 0-2.3.2c-.6.1-1.2.5-1.7 1-.2.2-.4.4-.5.6-.1.1-.1.2-.2.3v.2c0 .2.1.5.3.9.1.2.3.4.4.6.1.2.3.4.4.6.4.5.8.8 1.3 1.2.5.4.9.8 1.2 1.3 1.5 2.2 2.9 4.5 4.4 6.6.8 1.1 1.5 2.3 1.9 3.6.1.4.2.9.3 1.4 0 0 0 .1.1.1l.1.1c.1-.1.2-.1.2-.2.2-.1.3-.2.5-.4.1-.1.2-.2.4-.3 0 .3-.1.6-.1.8 0 .2 0 .4-.1.6 0 .2-.1.3-.1.5-.1.3-.2.6-.3 1 0 .2-.1.3-.1.5-.1.8 0 1.6 0 2.4v1.4s.1.5.2.7v.1c0 .1 0 .1.1.2.1.2.2.5.4.7.2.2.3.4.5.6 1.1 1.2 2.3 2.4 3.4 3.5l.5.5c.3.3.6.7 1 1 .2.1.4.3.6.4.4.3.9.5 1.4.7 1.4.7 2.7 1.4 4.1 2 .1 0 .2.1.3.1.2.1.4.3.5.5v.2c0 .1 0 .3-.1.4 0 .1-.1.2-.1.3-.2.4-.4.8-.5 1.3l-.6 2.5-.6 2.5c-.1.3-.3.6-.4 1-.1.2-.2.4-.2.7 0 .3-.1.4-.2.7-.4 2.4-.9 4.8-1.3 7.3 0 .1-.1.1-.1.2l-.6 3.1c-.1.3-.1.6-.1.9 0 .3-.1.6-.1.9-.1.8-.3 1.6-.4 2.4-.1.8-.3 1.6-.4 2.4-.3 1.6-.6 3.2-.8 4.8-.1.7-.2 1.3-.2 2-.2 2-.2 3.9-.4 5.9-.2 2.4-.7 4.9-.6 7.3 0 .9 0 1.8-.1 2.7l-.3 2.7c-.3 1.8-.7 3.5-.9 5.3-.2 1.4-.5 2.7-.8 4l-.9 4c-.1.8-.1 1.6-.1 2.4 0 .5 0 1-.2 1.4-.2.6-.3 1.3-.4 1.9-.1.6-.1 1.3-.1 1.9 0 1.3.2 2.5.5 3.8.1.3.1.6.1.9 0 1.3 0 2.6.1 4 .1 1.3.3 2.6.4 3.9l.6 3.9.6 3.9c.1.8.3 1.6.4 2.5l.9 5.8c.1.6.2 1.3.4 1.9.4 2.1 1 4.2 1.6 6.3l1.8 6.8c.4 1.5.9 3 1.3 4.6l.3 1.1c.2.7.4 1.5.7 2.2.1.4.3.7.4 1.1.8 1.8 1.7 3.5 2.6 5.3s1.8 3.5 2.7 5.2c1.3 2.4 2.6 4.8 3.9 7.1s2.6 4.7 3.8 7.2c.9 1.8 1.7 3.6 2.4 5.4l1 .1c-1-2.5-2.2-5-3.4-7.4-1.5-3.1-3.2-6.2-4.9-9.3-1.7-3.1-3.4-6.1-5-9.2-1-1.9-1.8-3.9-2.5-5.9-.3-.7-.5-1.3-.8-2-.1-.2-.2-.5-.2-.8-.2-.8-.3-1.6-.5-2.4-1-3.5-2.2-6.9-2.9-10.4-.3-1.3-.6-2.6-.8-4-.5-2.6-1-5.3-1.5-8l-.6-4c-.2-1.3-.4-2.6-.5-3.9-.2-1.3-.3-2.6-.4-4l-.9-7.9c-.1-.7-.2-1.3-.3-1.9-.2-1.9-.2-3.8.2-5.8.5-2 .6-4.1.9-6.2l.3-2.1c.2-1.2.5-2.4.7-3.6l.6-3.6c.2-1.2.4-2.4.5-3.6l.3-3.7c.1-1 .1-2 .2-3 .1-2 .3-4 .5-6l.3-3c.7-5.8 1.7-11.6 2.6-17.4.2-1.3.5-2.5.8-3.8.1-.4.2-.8.3-1.3l2.7-10.9c.2-.6.5-.9 1-.9.2 0 .4 0 .6.1.5.1 1 .2 1.6.3.5.1 1 .2 1.6.3 1.1.2 2.1.4 3.1.6 2.1.4 4.2.9 6.3 1.3.2 0 .3.2.4.2l1 .3c.3.1.7.2 1 .2 2.2.4 4.4.8 6.7 1.2h.2c1.1.2 2.1.5 3.2.7.3.1.7.1 1 .1.2 0 .4.1.5.2.6.3 1.2.5 1.7.6.2 0 .4.1.6.1.4.1.8.1 1.2.1h1.2c.3 0 .6 0 .8.1.3.1.6.1.8.2l1.4.3s.9.2 1.4.2c1.6.2 3.2.3 4.7.7 2.7.6 5.3.8 8 .4.2 0 .5-.1.7-.1h.2c.2.1.3.2.5.3.1.1.3.2.4.3-.1.1-.2.3-.3.4-.1.1-.2.3-.4.3-.5.2-1.2.3-1.7.5-.3.1-.6.3-1 .5-1.6.8-3.1 1.7-4.5 2.8-.6.4-1.1.9-1.6 1.4-3.4 3.4-7.2 6.5-9.4 10.9-.3.5-.5 1-.8 1.6-.5 1.1-.9 2.2-1.2 3.3-.2.6-.3 1.1-.5 1.7-.6 2.3-.2 4.5.4 6.7.2.7.4 1.4.7 2.1.2.5.3 1 .5 1.5.4 1.9 1.1 3.6 2.3 4.8.3.7.7 1.4 1 2.1l.3.6c.4.5.9 1 1.5 1.2.4.1.7.3 1.1.4 2.1.8 4.1 1.7 6.3 1.9.8.2 1.8.3 2.8.5.5.1 1 .4 1.5.5.2 0 .3.1.5.1.5 0 1 .1 1.4.1 8.5 1.9 24.2 6.9 24.2 6.9.7.4 1.4.7 2.1 1.1.4.2.8.3 1.2.5 1.3.4 2.7.5 4.1.7 3.1.4 6.1-.2 9-1.1.4-.1.8-.3 1.2-.4.3-.1.6-.2.9-.4.6-.3 1.2-.6 1.8-.8.3-.1.6-.3.9-.4.6-.2 1.1-.3 1.7-.5.6-.1 1.2-.2 1.8-.2l5.2-.3 5.3-.3c.1 0 .2-.1.2-.1l4-.6c.7-.1 1.3 0 2-.1.2 0 .4-.1.6-.1.6-.2 1.3-.4 2-.5 1.6-.3 3.3-.4 5-.5h1c.8 0 1.4.1 1.9.5.2.1.3.2.5.4s.4.4.5.7c.1.1.2.3.3.4.5.9 1 1.8 1.6 2.6.2.3.4.5.6.8.4.4.8.8 1.3 1.2.2.2.5.3.7.5.5.3 1 .5 1.5.7.8.3 1.7.4 2.6.4 1.5 0 2.9-.3 4.3-.6l2.1-.6c.7-.2 1.4-.4 2.1-.7.8-.2 1.4-.5 2.1-.9.6-.3 1.2-.7 1.8-1.1.3-.2.5-.4.8-.7.5-.5.9-.9 1.4-1.5 1.8-2.3 2.9-5.2 3.9-8.2.4-1.2.7-2.4.9-3.7.2-1.3.4-2.5.7-3.8.1-.4.1-.8.2-1.2.2-2.1-.1-4-1-5.8-.3-.7-.8-1.4-1.3-2.1-1.3-1.6-2.5-3.2-3.7-4.8-.4-.5-.8-1.1-1.1-1.7-.7-1.1-1.4-2.3-2.1-3.4-.6-1.2-1.2-2.4-1.7-3.7-.1-.4-.4-.7-.7-1-.1-.1-.2-.1-.3-.2-.1 0-.2-.1-.3-.1 0 .1-.1.1-.1.2-.1.2-.2.4-.2.5.1.3.3.5.4.8.2.3.3.5.4.8 2 4.8 4.9 8.9 8.3 12.8.2.3.4.5.6.8.1.1.2.3.2.4.1.1.2.3.3.4.4.6.6 1.2.7 1.8.2.8.2 1.7.3 2.6v1.8c0 .8-.1 1.5-.3 2.2-.4 1.8-1 3.6-1.3 5.4-.3 1.6-1 3.1-1.6 4.6-1.4 3.9-4.1 6.4-8 7.6-1.7.5-3.4.9-5.1 1.2-.6.1-1.2.2-1.7.3-.6.1-1.2.1-1.8.1-1.8-.1-3.3-.9-4.5-2.5-1.8-2.5-3.5-5.2-5-7.9-.3-.5-.6-1-1-1.4-.3-.3-.5-.6-.8-.9-.2-.1-.3-.3-.5-.4-1.6-1.3-3.7-2.1-5.7-1.7-.5.1-1.1.2-1.6.2-1.6.1-3.2.1-4.7 1 0 0-.1 0-.2.1h-.6c-1.1.3-2.4.5-3.4 1.1-2.3 1.5-4.5 3.2-6.7 4.8-.5.4-.9.8-1.5 1-.6.3-1.3.5-1.9.8-.6.3-1.3.5-1.9.8-1.3.5-2.6 1.1-3.8 1.7-.4.2-.8.3-1.1.5-1.1.4-2.3.8-3.5.9-.4.1-.8.1-1.2.2-.8.1-1.6.1-2.4.1h-1.2c-.3 0-.6 0-.9-.1-1.4-.1-2.8-.6-4.1-1.1-.5-.2-1-.4-1.6-.6l-1.2-.6c-1.2-.6-2.3-1.4-3.4-2.2-1.4-.9-2.8-1.8-4.1-2.8-2.7-1.9-5.5-3.7-8.2-5.5l-4.2-2.7c-.4-.2-.7-.5-1.1-.7-.6-.3-1.2-.6-1.9-.8s-1.4-.3-2.1-.2c-.4 0-.8.1-1.2.1-1.2.2-2.3.5-3.4.9-1.3.5-2.5 1.1-3.4 2-.3.3-.6.6-.9 1-.3.3-.5.6-.8.8-.4.3-.7.4-1.1.4-.4 0-.8-.3-1.4-.7-.7-.5-1.3-1.2-1.7-1.9-.6-1-1.1-2-1.6-3.1-.2-.4-.4-.8-.6-1.3-.4-.8-.7-1.7-1-2.6-.3-.9-.5-1.8-.7-2.6-.2-.8-.3-1.7-.4-2.6 0-.5-.1-1-.1-1.6v-1c.1-1.7.4-3.4 1-5 .1-.3.2-.5.3-.8.2-.4.3-.7.5-1.1 1.5-2.7 3.4-5.1 5.5-7.3 1.1-1.1 2.2-2.1 3.3-3.1 1.1-1 2.3-2 3.5-2.9.3-.3.7-.5 1-.7.3-.2.7-.5 1.1-.7.7-.4 1.5-.8 2.2-1.2l2.4-.9c.8-.2 1.7-.4 2.5-.5.3 0 .5-.2.8-.3.9-.6 1.8-1.1 2.7-1.7l2.7-1.8c.7-.5 1.4-1 2-1.5.7-.5 1.3-1.1 1.9-1.6l.9-.9c.6-.6 1.1-1.3 1.6-1.9.2-.3.5-.7.7-1.1.7-1.2 1.2-2.4 1.7-3.7.2-.4.4-.8.5-1.3.4-.8.8-1.6 1.2-2.5.4-.9.8-1.6 1.2-2.5.6-1.2 1.2-2.5 1.8-3.8.6-1.3 1.2-2.5 1.8-3.7.7-1.3 1.4-2.6 2.1-3.8.7-1.3 1.5-2.5 2.2-3.7 1.7-2.8 3.6-5.4 6.1-7.6.4-.3.7-.6 1.1-.9.7-.5 1.4-1 2.2-1.5.8-.4 1.6-.8 2.4-1s1.5-.3 2.2-.3c.7 0 1.4.1 2.1.3s1.3.5 2 .9l.9.6c.3.2.6.5.9.7.5.5 1.1 1 1.6 1.5 3.6 3.6 6.6 7.7 9 12.2 1.8 3.3 3.6 6.6 5.5 9.9.4.7.7 1.4 1.1 2.1 1.1 2.1 2.2 4.1 3.4 6.1 1 1.7 2 3.4 3.2 5 .4.5.8 1 1.3 1.5 1.6 1.7 3.3 3.1 5.2 4.6.6.5 1.2.9 1.8 1.4.7.6 1.6 1 2.5 1.3.3.1.6.2.9.4 2.3.9 4.5 1.9 6.77 2.6.5.2 1 .3 1.6.4 1.6.4 3.2.6 4.8 1.1 1.3.4 2.5.7 3.8.9 1.3.2 2.6.3 3.9.3h1.1c1.1 0 2.2-.1 3.2 0 .8 0 1.6.1 2.3.1 2.3.1 4.7.2 7 .4.5 0 1 .1 1.5.1.5.1 1 .1 1.5.2 1.4.2 2.7.5 4.1.6h10.4c6.1.1 12.2.1 18.3.3h1.2c.8 0 1.6-.1 2.4-.2s1.6-.1 2.4-.2h1.2c.8 0 1.6.2 2.4.4h.2c.2 0 .5-.1.7-.1s.5-.1.7-.1c.7-.1 1.5-.2 2.2-.2 1.6 0 3.2.1 4.8.1h2.4l2.3-.3c.4-.1.8-.2 1.1-.2 2.7-.4 5.5 0 8-1.4.3-.2.6-.3.9-.4l1-.3c.7-.2 1.3-.4 1.9-.8s1.3-.9 1.8-1.5c.6-.6 1.1-1.2 1.6-1.8l1.8-2.4c1.7-2.4 3.2-4.9 4.5-7.7 1.2-2.6 2-5.3 3.6-7.7l.7-1c.1-.2.2-.3.4-.4.4-.4.9-.8 1.3-1.1.4-.2.7-.5 1.1-.7 1.1-.7 2.2-1.4 3.5-1.9.8-.3 1.7-.6 2.5-.9.9-.2 1.7-.4 2.6-.4 1.8-.1 3.6-.1 5.3-.1s3.6 0 5.3.1c.4 0 .8.1 1.2.2l1.2.3c1.1.3 2.1.8 3.2 1.1l1.1.3c.2 0 .3.1.5.1.6.2 1.1.4 1.5.8.2.2.4.4.5.7.1.1.1.3.2.4l1.5 3.6c.5 1.2.9 2.4 1.4 3.6.5 1.4 1 2.7 1.4 4.1.5 1.4.9 2.7 1.3 4.1.2.7.4 1.4.5 2.1.1.5.2.9.2 1.4.1.5.1.9.1 1.4 0 .2 0 .5-.1.7-.1 1.1-.3 2.1-.4 3.2-.1 1.1-.3 2.1-.4 3.2 0 .2-.1.4-.1.6-.1.4-.3.7-.5 1.1-.4.7-.9 1.4-1.4 2.2-.1.2-.2.4-.3.5-.1.2-.2.4-.2.5-.1.2-.1.4-.2.6.1 0 .2-.1.3-.1.1 0 .2-.1.3-.1.2-.1.4-.1.6-.3.3-.4.7-.7 1-1.1l.9-1.2c1.8-2.1 3.7-4.1 5.2-6.4.9-1.3 1.8-2.6 2.8-3.8 1-1.2 2-2.4 3-3.5 1.1-1.1 2.2-2.1 3.4-3.1s2.4-1.9 3.8-2.7c1.2-.7 2.4-1.4 3.6-2 .6-.3 1.2-.6 1.9-.9l1.8-.9c.1-.1.3-.1.4-.2h.4c.5.2 1 .3 1.5.4 1.5.4 2.9.8 3.8 2.3.7 1.2 1.5 2.4 2.1 3.7.4.8.6 1.6.9 2.4.1.3.2.6.2.8l.9 3.3c.3 1.1.5 2.2.6 3.4.3 3 .2 6 .1 9v1c0 .7-.1 1.4-.2 2.1-.1.3-.1.7-.2 1-.6 2.7-1.4 5.3-2.2 8-.9 3-1.7 6.1-2.7 9.1-.3 1-.7 2-1 3-.6 1.8-1.3 3.5-1.9 5.3-1.3 3.5-2.7 7-4 10.5-.7 1.7-1.3 3.5-2 5.2-.3.7-.5 1.5-.8 2.3-.3.8-.5 1.5-.8 2.3-.4 1.1-.8 2.1-1.3 3.2-.2.3-.3.7-.5 1-.2.4-.4.7-.5 1l-.3 1c0 .2 0 .3-.1.5v.5c0 .4.1.8.3 1.2.5 1.3 1.1 2.7 1.2 4.2 0 .5 0 1-.1 1.5-.2 1.3-.5 2.5-.8 3.7-.2 1-.6 1.9-1 2.8-.4.9-1 1.7-1.7 2.5-3.7 4.3-8.7 5.6-14 6.3h-.9c-.3-.1-.6-.1-.9-.1h-1.2c-2.4.8-3.9 2.4-4.8 4.6-.1.3-.2.6-.3 1-.3.9-.6 1.7-.9 2.6-.3.9-.6 1.7-.9 2.6-.3.9-.5 1.7-.8 2.6-.2.9-.5 1.7-.6 2.6-.5 2.3-.6 4.6-1.1 6.9-.3 1.6-.8 3.1-1.3 4.7-.2.7-.5 1.5-.7 2.2-.3.7-.5 1.5-.8 2.2-.4 1.1-.7 2.2-1.1 3.3l-1.2 3.3c-.8 2-1.7 4-2.7 6-.3.7-.6 1.3-.9 2-.9 1.9-1.9 3.9-2.8 5.8s-1.9 3.9-2.8 5.8c-1.2 2.4-2.7 4.8-3.5 7.3-.2.6-.5 1.3-.7 1.9l1.3-2.6 2.3-1.9c-.5-.3-.6-.6-.4-1.1 0-.1.1-.2.1-.2.1-.1.1-.2.2-.3.7-1.1 1.4-2.2 2-3.3.2-.4.4-.7.6-1.1.8-1.5 1.5-3.1 2.3-4.7.8-1.6 1.5-3.1 2.2-4.7.9-1.9 1.8-3.7 2.6-5.6l1.2-3c.4-1 .8-2 1.2-3.1.4-1 .8-2.1 1.2-3.1.1-.4.3-.7.4-1.1.4-1.1.8-2.1 1.1-3.2.5-1.9.8-3.8 1.3-5.7l1.8-8c.2-.8.3-1.6.5-2.4.2-.8.4-1.6.7-2.4.8-2.2 1.7-4.4 2.7-6.5.2-.5 1-.7 1.5-1.1.2.6.5 1.1.5 1.7 0 .3 0 .6-.1.9-.1.9-.3 1.8-.3 2.7-.2 2.6-.3 5.1-.5 7.7-.2 2.6-.3 5.1-.5 7.7-.2 2.6-.5 5.2-.7 7.8-.1.9-.1 1.7-.2 2.6 0 .2 0 .3.1.5.1.3.3.6.4.9.1.2.2.3.2.5.1.1.1.3.2.4.2.3.3.5.5.8l-.9-3.6 1.1-12 1.1-19.1.7.1c.1-.1.2-.1.3-.1h.6c.2 0 .4.1.6.1.6.1 1.1 0 1.7-.1.2 0 .4-.1.5-.1l1.1-.3c.2 0 .4-.1.5-.1.3-.1.6-.1.9-.2.6-.1 1.2-.3 1.9-.4.6-.2 1.2-.3 1.8-.5.9-.3 1.8-.7 2.7-1.2.7-.4 1.3-.8 1.9-1.3.6-.4 1.1-.9 1.7-1.4.5-.5 1-1 1.4-1.6.6-.8 1.2-1.7 1.6-2.6.1-.3.3-.6.4-.9.3-.6.5-1.3.6-2 .2-.7.3-1.4.4-2.1.1-.7.2-1.5.2-2.2 0-.3 0-.7-.1-1-.1-.3-.1-.7-.2-1-.2-.7-.4-1.3-.5-2 0-.2-.1-.4-.1-.6-.2-1.4-.4-2.8.2-4.2.3-.6.6-1.2.8-1.8.2-.6.5-1.2.8-1.8.3-.8.6-1.7.9-2.5.9-2.5 1.7-5.1 2.6-7.6 1.2-3.3 2.6-6.6 3.9-9.9.7-1.8 1.4-3.7 2.1-5.5.2-.5.3-1 .5-1.5l.6-1.5c1.5-2.7 2.1-5.6 2.8-8.6.2-1 .5-2 .7-2.9.3-.9.5-1.9.7-2.8.2-.9.4-1.9.7-2.8.1-.2.1-.5.2-.7.2-.7.4-1.4.4-2.2.1-3.5.1-7 0-10.6 0-.6-.1-1.3-.2-1.9-.1-.6-.2-1.3-.4-1.9-.4-1.7-.8-3.4-1.3-5-.3-.8-.5-1.7-.8-2.5-.3-.8-.6-1.6-1.1-2.3-.2-.3-.3-.5-.5-.8-.7-1-1.6-1.9-2.6-2.5-.5-.3-1.1-.5-1.8-.6-.3 0-.7-.1-1 0-.2 0-.4-.1-.7-.1-.1 0-.2-.1-.3-.1l-.1-.1v-.4c0-.1 0-.3.1-.4.1-.3.2-.5.3-.8.1-.3.5-.5.7-.8.2-.4.4-.7.7-1.1.4-.7.9-1.4 1.3-2.1.2-.4.4-.7.6-1.1.9-1.9 1.7-3.8 2.5-5.7.2-.6.4-1.1.6-1.7.2-.6.4-1.2.6-1.7.1-.4.3-.8.4-1.2.4-1.2.9-2.4 1.2-3.6.5-2.4.8-4.9 1.3-7.4.1-.3.1-.7.2-1 .1-.3.2-.7.2-1 .2-.7.3-1.3.3-2 .1-5 0-10 .1-15 0-.8.1-1.6.2-2.4.2-1.6.7-3.3.7-4.9 1.22-2.5 1.12-5.5 1.12-8.5zm-330.3-4c-.6-.2-1.1-.3-1.7-.5-.1 0 0-.5.1-.7.6.2 1.2.3 1.8.5-.1.2-.1.5-.2.7zm191.3-167.3c-.3 1.2-.8 1.4-1.9.4.6-.1 1.3-.3 1.9-.4zm104.6 190.5c-.1.8-.4 1.6-.7 2.4-.4 1.2-.7 2.5-1.3 3.7-1.1 2.5-2.4 4.9-3.5 7.4-.6 1.2-1.1 2.4-1.6 3.5-.4.9-1 1.7-1.3 2.7-.9 2.3-1.7 4.6-2.7 6.8-.5 1.2-1.1 2.4-1 3.7 0 .2-.5.6-.8.6-.4.1-.9 0-1.3-.2-2.4-1.3-5.1-1.3-7.6-2.1-4.6-1.4-9.2-.6-13.8-.8-1.8-.1-2.2-.6-1.5-2.3.7-1.8 1.5-3.5 2.2-5.3.3-.9.5-1.8.7-2.8.1-.5 0-1 .2-1.4 1.4-3.4.5-7 .8-10.5 0-.4-.1-.9-.1-1.3-.1-4.7-2.6-8.2-5.9-11.3-1.9-1.8-4.3-2.9-6.6-4 0 0-.1 0-.1-.1-1.8-.4-3.7-.8-5.5-1.3-2.7-.7-5.7-.4-8.2-1.9-1.6-1-3-2.4-4.6-3.6-2.3-1.8-4.5-3.6-6.9-5.2-3.1-2-6.4-3.9-9.7-5.7-2-1.1-4.3-1.7-6.5-2.6-1-.4-2.1-.8-3.1-1.1-2-.6-4-1.1-5.9-1.6-.3-.1-.5-.2-.8-.2-4.2-.3-8.4-.7-12.7-.9h-.4c-1.2 0-2.5.5-3.7.6-1.1.1-2.2.1-3.2.1h-.4c-2.6.6-5.2 1.2-7.7 1.8-1.9.5-3.8.9-5.7 1.4-.9.2-1.7.6-2.5.9-2.3.9-4.5 1.8-6.8 2.6-.8.3-1.7.7-2.5 1-2.7 1.1-5.4 2.2-8 3.5-2.3 1.1-4.4 2.3-6.6 3.4-2.1 1.1-4.3 2.2-6.4 3.4l-2.1 1.2c-.2.1-.2.5-.3.7-.2.4-.4 1-.7 1-4.7.7-9.4 1.3-14.1 1.9-.8.1-1.7 0-2.5 0v.1c-5.9-.1-11.7-.2-17.6-.4-2.9-.1-5.9-.4-8.8-.7-2-.2-3.9-.6-5.9-.9-1.1-.2-1.6-.8-1.5-1.9.2-4.1-1.4-7.3-4.3-10.1-1.4-1.3-2.6-2.9-4.1-4.1-1.8-1.4-3.7-2.6-5.6-3.8-1.8-1-3.7-1.9-5.6-2.8-1.3-.6-2.7-.9-4-1.4-1.7-.5-3.4-1.1-5.1-1.6-.5-.2-1.1-.3-1.6-.4-2.1-.2-4.2-.4-6.3-.7-2.5-.3-4.9-.2-7.4.5-.4.1-.8.1-1.2.2-1.9.3-3.9.5-5.8 1-1.9.6-3.7 1.5-5.5 2.4-1.4.8-2.7 1.8-4.1 2.7-.3.2-.7.3-1 .2-.2-.1-.4-.6-.4-.9 0-.7.1-1.4.2-2 .4-2.1.9-4.2 1.4-6.2.1-.3.2-.5.2-.8.3-1.6.5-3.3.7-4.9.5-3 .8-6.1 1.4-9.1.4-2.2 1-4.5 1.6-6.7.3-1.1.9-2.2 1.2-3.3.9-3 2.8-5.4 4.8-7.9 1.4-1.8 2.5-3.9 3.5-5.9s2.1-4 2.6-6.2c1.1-4.3 4.7-6.9 6.6-10.5 1.5-2.8 3.3-5.5 4.8-8.4 2.3-4.6 4.3-9.4 7.5-13.5 1.6-2 3.4-3.9 5.2-5.8 2.4-2.6 4.8-5.2 7.4-7.6 3.9-3.6 7.8-7.1 12.5-9.6 3.2-1.8 6.5-3.4 9.8-5 1.3-.6 2.9-.9 4.3-1.3 1.9-.6 3.9-1.1 5.8-1.6l1.6-.3 8.2-1.2c2-.3 3.9-.5 5.9-.8.6-.1 1.2 0 1.8-.2.3-.1.5-.2.8-.2.2-.1.5-.1.7-.1.5-.1 1-.2 1.5-.2h.1c.5-.1 1-.1 1.6-.1h.1c1.1 0 2.2-.1 3.2-.1 1.4 0 2.8-.4 4.3-.5 1.6-.2 3.2-.4 4.7-.5 4.7-.3 9.5-.5 14.2-.8 5.2-.4 10.5-.1 15.7.4 1 .1 2.1.3 3.1.3 1.8 0 3.6.1 5.3.9.8.4 1.8.2 2.7.3h4c.8 0 1.6.3 2.4.5l1.8.3c1.1.2 2.3.5 3.4.7.7.2 1.5.3 2.2.4l2 .6c.2.1.4.2.5.2 1.7.4 3.5.8 5.2 1.3.9.3 1.8.6 2.7 1 2.1.8 4.2 1.6 6.1 2.6 4.1 2.1 8.2 4.2 12.2 6.4 1.1.6 2.1 1.4 3.1 2.2 4.4 3.7 8.7 7.4 13 11.1 2.6 2.2 5.4 4.2 8.1 6.4 3.5 2.8 7.1 5.4 9.5 9.2 1.6 2.5 2.8 5.3 4 8.1 1 2.4 1.9 4.9 2.7 7.4.4 1.1.6 2.2.8 3.3.5 2.4 1.5 4.6 1.4 7.1 0 1.6.7 3.2 1.4 4.8 1.1 2.6 2.4 5.1 3.6 7.6.8 1.7 1.7 3.4 2.5 5.1.2.5.3 1 .5 1.5.5 1.6.9 3.3 1.4 4.9.5 1.5 1.1 3 1.7 4.4.8 2 1.7 4.1 2.6 6.1.9 1.9 1.9 3.7 2.9 5.5 2.8 5.2 6.7 9.5 11 13.5 1.9 1.7 3.9 3.5 4.9 6 .6 1.4 1.2 2.9 1.6 4.3.6 1.9 1.1 3.8 1.6 5.7.1.2.2.5.2.7.3 2.2.5 4.3.8 6.5 0 .2 0 .4.1.6 1.1 2.7.4 5.3.3 7.9zm18.2-48.5l-.1-.1-.7-1v-.1l.2-.2.2-.2.2-.2 1.1 1.1c-.4.3-.6.5-.9.7zm-299.1 262.1c.3.8.5 1.6.7 2.4-.2-.8-.4-1.6-.7-2.4zm8.7 37.2zM74.65 486.95l3.9 10.7 4.7 5.6.2.2c-.6-.7-1.2-1.5-1.8-2.3l-.6-.9c-.2-.3-.3-.5-.5-.8-.4-.6-.8-1.2-1.1-1.9-.8-1.5-1.5-3-2.1-4.7-.3-.8-.6-1.6-.8-2.5-.2-.8-.5-1.7-.6-2.6l-1.2-6.3s-.8-4.2-1.2-6.4c-.2-1.1-.5-2.1-.7-3.2-.7-3.2-1.4-6.4-2-9.6l-.6-2.8c-.4-1.9-.7-3.8-1.1-5.7l-.6-2.8c-.7-2.8-1.4-5.7-2.2-8.5-.8-2.8-1.6-5.6-2.5-8.4-.9-2.6-1.8-5.1-2.9-7.6l3.2 11.9c.4 1.2.7 2.4 1.1 3.7.2.9.5 1.7.7 2.6.2.9.4 1.7.7 2.6.1.5.3 1.1.4 1.6l2.7 10 1.2 7.9v.2l.3 1.4c.3 1.4.5 2.8.8 4.2 0 .2.1.5.1.7l2.5 13c-.1.3-.1.5 0 .7zm263.1-79.3c.1.1.1.3.1.4.1.4.1.9.1 1.3v1.4h.3c.1-.1.1-.3.1-.4v-1c0-.2 0-.3.1-.4l.3-.6c.1-.1.2-.2.4-.2l-.8-.8-.6.3zm-29.6 36.3c-.1.1-.2.3-.2.4-.1.2-.2.4-.3.7h.3l1.8-1.6 1.7-4.4c-.9 1.7-2 3.3-3.3 4.9zm-241.3 5zm70.8 87.8c0-.4-.1-.9-.1-1.3-.1-.8-.3-1.7-.5-2.5v-.1l.5 4.7c.1.2.1.3.1.5v-1.3zm-15.5-11.7h-.4c-.3 0-.6-.1-.9-.1-.3-.1-.6-.1-.9-.3-.7-.2-1.3-.3-1.9-.3h-.6c-.8 0-1.7.1-2.5.1v.1l7.9.7c-.3-.1-.5-.1-.7-.2zM307.75 444.95h-.1c.1-.2.2-.4.3-.7-.9.9-2 2.1-2.5 2.5-2.7 2.1-5.5 4.2-8.2 6.4 0 0-.1.1-.2.1s-.1.1-.2.1c-2.5 1.6-5 3.1-7.4 4.7-.9.6-1.7 1.2-2.6 1.8-2.6 1.8-5.1 3.7-7.8 5.3-3.4 1.9-6.7 4.1-9.9 6.3-.8.5-1.6 1.1-2.4 1.7-2.4 1.7-4.8 3.4-7.1 5.1-4.1 2.9-8.2 6-12.3 8.9-1.4 1-2.7 2-4.1 2.9-2.8 1.9-5.6 3.8-8.5 5.6-1 .6-1.9 1.2-2.9 1.7-2.6 1.5-5.2 2.9-7.9 4.3s-5.3 2.7-7.9 4.2c-4.9 2.6-9.7 5.5-14.5 8.1-.8.5-1.7.9-2.5 1.4-1.7.9-3.4 1.9-5.1 2.7-.9.4-1.7.9-2.6 1.3-1.8.9-3.6 1.7-5.5 2.5-1.8.8-3.7 1.5-5.6 2.3l-1.8.6c-1.8.6-3.7 1.1-5.6 1.5-2.8.6-5.6.9-8.5 1.4-3.2.5-6.4 1.1-9.5 1.7-.4.1-.8.2-1.2.2-4.9-.5-9.1-.6-12.7-.3h-.1c-.4-.1-.9-.3-1.3-.4-1.3-.5-2.6-.9-4-1.4-.3-.1-.6-.1-.9-.1-.4-.1-.9-.1-1.3-.2s-.9-.2-1.2-.4l-.6-.3c-.1 0-.1 0-.2-.1-.1 0-.3-.1-.4-.1h-1.4c-.7 0-1.3.1-2 .1-.5-.2-1.1-.4-1.7-.5l-2-.5c-.4-.1-.7-.1-1.1-.1l7.2 1.8 6.5.9.2 1.9c0-.1.1-.2.1-.2l.2-.2c.2-.1.4-.1.6 0 .2 0 .5.1.7.2.4.1.8.5 1.2.6.5.1 1 .2 1.4.3 1.8.4 3.6.6 5.4.6h1.8c1 0 2-.1 2.9-.3 1.1-.2 2.3-.2 3.4-.3.7-.1 1.4-.1 2.1-.2l2.1-.3 4.2-.6c.7-.1 1.4-.2 2.1-.4 2.2-.4 4.3-.9 6.5-1.4l6.5-1.5c.6-.1 1.2-.4 1.8-.7l.6-.3c1.1-.4 2.2-.8 3.3-1.3 1.1-.4 2.2-.9 3.2-1.3 1.2-.5 2.4-1.1 3.6-1.7l3.6-1.8c2.9-1.5 5.9-3 8.8-4.6 3.2-1.7 6.3-3.6 9.5-5.3 4.2-2.3 8.4-4.4 12.6-6.7 3.2-1.8 6.4-3.5 9.5-5.5 4.6-2.9 9.2-5.9 13.7-9 2.2-1.5 4.3-3.1 6.5-4.7s4.3-3.2 6.5-4.7c3.6-2.6 7.3-5 10.9-7.5 1.2-.8 2.4-1.7 3.7-2.5 1.8-1.2 3.7-2.4 5.5-3.6 1.8-1.2 3.7-2.4 5.5-3.6l3.9-2.7c1.2-.8 2.3-1.6 3.5-2.4.3-.2.5-.3.9-.4.2-.1.4-.1.6-.2l1-.6 10.9-9.9c.2-.1.3-.1.3-.2zm17.3-18.4c.4.1 1 0 1.5-.4-.5.4-1 .6-1.5.4zm2.4-1.6c-.6.4-1.1.8-1.6 1.1.5-.4 1-.7 1.6-1.1zm9.9-7.3zm-.8.4c-.2.3-.4.6-.6.8.2-.3.4-.6.6-.8zm.8-.4c.1-.1.2-.3.3-.4-.1-.1-.2-.2-.2-.3l-.8 1.1.7-.4z"/><path fill="#FFF" d="M363.25 173.35l-1.1-1.1c0 .1-.1.1-.2.2l-.2.2c-.1.1-.1.2-.2.2v.1c.1.4.4.7.7 1l.1.1c.3-.2.5-.4.9-.7zm-316.6 24.8c0 .3-.1.7-.1.7.6.2 1.1.3 1.7.5.1-.2.1-.5.2-.7-.6-.2-1.2-.3-1.8-.5zm136.6 225.5c1-.1 2.1-.1 3.1-.2l1.9-.3c.5-.1 1-.3 1.5-.6.2-.1.4 0 .6-.1 1.8-.4 3.7-.8 5.5-1.3.2 0 .3-.2.4-.2 1.7-.5 3.3-1.1 5-1.6 1.6-.5 3.3-.7 4.7-1.5 1.9-1.1 3.9-1.5 5.8-2.2 2.8-1 5.5-2.3 7.9-4 2.2-1.6 4.1-3.4 5.3-5.9.8-1.6 1.5-3.3 1.9-5.1.6-2.7-1.4-4.9-4.2-4.9-1.1 0-2.2.1-3.2 0-1.9-.1-3.8.3-5.6-.8-.2-.2-.6-.1-.9-.2-2.2-.4-4.4-.7-6.5-1.2-3-.6-5.9-1.4-8.8-1.8-3.4-.5-6.9-.6-10.3-1.1-3.6-.5-7.1-1.3-10.6-2.1-2.3-.5-4.5-1-6.9-.8-5.1.4-10-.6-15-1.1-3.6-.4-7.1-1.1-10.6-1.6-2-.3-4.1-.4-6.2-.6-.8-.1-1.6-.4-2.5-.4-3.5-.3-6.9-.5-10.4-.7-2.3-.2-4.7-.3-7-.5-2.9-.3-5.8-.7-8.6-1.1-.2 0-.4-.1-.6-.1-1.4-.2-2.8-.7-4.2-.6-4.1.3-8.4 0-12.3 1.8-.2.1-.5 0-.7.1-.9.2-1.7.4-2.6.7-.4.1-.8.2-1.1.3-.9.2-1.8.4-2.6.6l-2.4.6c-1.1.3-2.2.5-3.2.8-.9.3-.7.7-.2 1.3 1.6 1.9 3.4 3.6 4.7 5.7 1.6 2.5 2.9 5.2 4.3 7.8.7 1.2 1.3 2.4 2 3.5 1.3 1.9 2.1 4.2 4.1 5.7.4.3.6.7.9 1.1 1.2 1.5 2.7 2.7 4.5 3.4 2.3.8 4.8 1.4 7.1 2.2 2.3.8 4.5 1.9 6.9 1.9.3 0 .6.3.9.4l2 .6c1.8.4 3.7.6 5.3 1.3 2.7 1.1 5.6 1.1 8.4 1.5 4.9.7 9.9.8 14.9 1.2 1 .1 2.1.1 3.1.2 2.5.3 5 .5 7.5.8.3 0 .6 0 1 .1 2.6.3 5.3.7 7.9 1v-.5c2 0 3.9.1 5.9 0 4-.5 8.1-.9 12.2-1.5z"/><path fill="#6A3C22" d="M74.45 486.35l.1.4.1.2c-.1-.2-.1-.4-.2-.6zm197.3-10l.4-.4c-.1.1-.2.1-.2.2-.1.1-.1.2-.2.2zm-33.4 27.5l.7-.6c-.1.1-.3.2-.4.3l-.3.3zm.7-.6zm17.5-14.4c-.1.1-.3.2-.4.3-.1.1-.3.2-.4.3-.1 0-.1.1-.2.1-.2.1-.3.3-.5.4h-.1l-.5.5 2.2-1.8c0 .1 0 .2-.1.2zm.2-.1zm-9 7.2c-1.1.9-2.1 1.8-3.1 2.7l4.9-4c-.3.2-.5.4-.8.6-.4.2-.7.4-1 .7zm-107.4 59.3c0-.2-.1-.5-.2-.7v-.2l.3 1.7c0-.2 0-.5-.1-.8 0 .1 0 0 0 0zm121.9-71.2c-.2.1-.3.3-.5.4-.3.2-.6.5-.9.8-.2.2-.4.3-.6.5-.4.4-.9.8-1.3 1.2l5-4.1c-.6.4-1.2.8-1.7 1.2zm45.5-39.1l-.1.1.1-.1c.1 0 0 0 0 0zm-235.9 27.7c-.3-1.4-.5-2.8-.8-4.2l-.3-1.4 1.2 6.3c0-.3-.1-.5-.1-.7zm-5.4-25.3c-.2-.9-.4-1.7-.7-2.6-.2-.9-.5-1.7-.7-2.6-.3-1.2-.7-2.4-1.1-3.7l2.8 10.4c-.1-.4-.2-.9-.3-1.5zm227.8 8.7c-1.2.8-2.3 1.6-3.5 2.4l5-2.9c-.2.1-.4.1-.6.2-.4.1-.7.2-.9.3zm13.6-11.1c.1 0 .2-.1.2-.1.6-.5 1.1-1 1.5-1.5l-1.7 1.6zm-30.5 26.8c.5-.3.9-.7 1.4-1 .3-.2.7-.5 1-.8.1-.1.2-.2.4-.3l.3-.3c.1-.1.1-.2.2-.2v-.1l-3.3 2.7zm18.6-16.3c.1.1.1.2.2.3.1-.1.2-.3.3-.5.1-.2.2-.3.3-.4l-1 .6c.1.1.1.1.2 0zm.8-.5c1.7-1.3 3.4-2.6 5.1-4 .4-.3.7-.9 1.1-1.1.2-.1.3-.2.5-.3 1.1-.8 2-1.7 2.8-2.8.2-.3.5-.6.7-.8.2-.3.4-.5.6-.8l-10.8 9.8zm-24.6 21.1c.7-.6 1.5-1.1 2.2-1.6l-.1-.1-2.1 1.7zm-17.7 14.6l.1-.1-.1.1zm2.3-1.9c.2-.1.3-.2.5-.3.1-.1.2-.1.2-.2.1-.1.2-.1.3-.2l.3-.3.2-.2.5-.5.1-.1-2.1 1.8zm-7.3 5.9c.5-.3.9-.6 1.4-1 .4-.3.8-.6 1.1-.9l.4-.4c.1-.1.1-.2.2-.3 0-.1.1-.1.1-.2l-3.2 2.8zm14.4-11.8c.5-.4 1-.7 1.4-1.1.8-.6 1.5-1.2 2.3-1.8.4-.3.8-.7 1.3-1 1-.8 1.9-1.7 2.8-2.6l-7.8 6.5zm-124.3 67.5s-.1 0 0 0h-.2c.1.4.1.8.2 1.2.1.4.1.8.2 1.2.1.5.2.9.4 1.4v.2l-.6-4zm-25.8-25.9h.2c.1 0 .3 0 .4.1h.6v-.1l-1.8-.2c.1.1.4.1.6.2zm222.8-106.4c-.2.3-.4.6-.6.8h.4c.1 0 .1 0 .2-.1h.1c.1 0 .1-.1.1-.1l.1-.1c.2-.2.4-.6.6-.9l-.9.4zm-198.4 124.3v1.5c0 .2 0 .4.1.6.1.5.1.9.2 1.3.1.6.3 1.2.5 1.7l-.8-5.1zm-28.4-18.7c.1.1.3.1.4.1h.1c.2 0 .3.1.5.1h.1c.2 0 .4.1.6.1h.1c.2.1.5.1.7.2.3.1.5.1.8.2l-6.7-1.6c.5.1 2.2.7 3.4.9zm30.7 32.4v1.4c0 .3.1.6.1.9 0 .1 0 .3.1.4.1.4.2.8.3 1.1v.1c.1.4.3.8.4 1.2l-.9-5.1zm-43.9-39.1l-13.2-13.6-.2-.2-4.7-5.6-3.9-10.7c.1.5.2 1 .4 1.4.6 2 1.1 4.1 1.8 6.1.2.7.5 1.3.7 2 .5 1.3 1.2 2.6 2 3.7.5.8 1.1 1.5 1.7 2.3.9 1.1 1.9 2.2 2.8 3.2 2.5 2.8 5.1 5.5 7.7 8.2 1.2 1.3 2.5 2.4 3.8 3.6.2.2.4.3.7.5.6.4 1.1.8 1.1 1.8 0 .2 0 .4-.1.7 1.9-1.4 4.7.8 6.7 1.3.3.2.7.4 1 .5.2.1.3.2.5.3.1 0 .1.1.2.1.2.1.4.2.6.2l-8.1-4-1.5-1.8zm-24.5-42.8c.4 2.4.8 4.8 1.3 7.2.3 1.7.7 3.4 1.1 5l-2.5-13c0 .2.1.5.1.8zm-.1-.8zm-1.3-6.5l-1.2-7.9-2.7-10c.2.7.3 1.4.5 2.1.2 1 .5 1.9.7 2.9l1.5 7.7c.4 1.8.8 3.6 1.2 5.3v-.1zm251.7-38.5l-5.1 4.1c0 .1.1.1.1.2.7-.5 1.4-1.1 2.1-1.6l.3-.3.3-.3.3-.3.3-.3.9-.6c.9-.6 1.9-1.1 2.8-1.7-.1-.1-.2-.3-.3-.4-.4.4-1 .8-1.7 1.2.1 0 .1 0 0 0zm-261.6-1.7l-1-.1c.1.3.3.6.4 1 .3.7.6 1.4.9 2.2.4 1.1.8 2.1 1.2 3.2.2.5.4 1.1.5 1.6.2.5.4 1.1.5 1.6.3.8.5 1.6.7 2.4l-3.2-11.9zm265.1-.6c-.2.2-.5.3-.7.5.4.1 1 0 1.5-.4.4-.3.8-.8.9-1.3-.7.5-1.2.8-1.7 1.2zm13.1-53.1l-1.1 19.1-1.1 12 .9 3.6.6-.5.8.8h.1c.2-.1.4-.1.7-.2-.5-.4-.7-.7-1-.9-1.2-.6-1.5-1.6-1.4-2.9.4-4.2.7-8.4 1-12.5.3-5.7.5-11.5.8-17.2 0-.2 0-.4.1-.6 0-.1.1-.2.1-.3.1-.1.1-.2.2-.2l-.7-.2zm-216.1 152.2l-7.9-.7v.3h2c.5 0 1 .1 1.5.1s1 .1 1.4.3c.2.1.5.2.7.3 1.8.6 4.6.7 6.5.9v.2h.4c.4 0 .8 0 1.1.1.5.1 1 .1 1.5.2l-7.2-1.7zm205.8-101.2l-.8.5s0 .1.1.1l.1.1c.6-.1 1-.3 1.5-.6.3-.2.6-.5.9-.8l-.1-.1c0-.1-.1-.1-.1-.2l-.6.3c-.3.1-.5.3-.8.4l-.2.3zm-38 34.6c0-.1 0-.1 0 0zm-4.5 6c.4-.3.7-.6 1.1-.9-.2.1-.4.2-.7.2l-.4.7zm25.2-25.6l-1.7 4.4c.9-1.1 1.6-2.3 2.2-3.6.3-.6.6-1.3.9-1.9.2-.5.5-1 .7-1.5.1-.2.2-.3.3-.4.2-.3.4-.5.7-.8.3-.2.6-.4 1-.5-.1-.1-.2-.1-.3-.2l-2.3 1.9-1.5 2.6zm-82.4 72.6c.3-.3.7-.5 1-.8.5-.4 1.1-.8 1.6-1.2 0 0 0-.1-.1-.1l-2.5 2.1zm-42.3 35.1c.1.1.2.3.3.4 4.4-3.7 8.7-7.5 13.1-11.2 3.9-3.3 7.7-6.6 11.6-9.9l-25 20.7zm52.4-43.4c1.1-.9 2.3-1.8 3.4-2.7.7-.6 1.4-1.3 2.2-1.9l-5.6 4.6zm-61 51.5c.1 0 .2-.1.3-.1s.2-.1.3-.2c.6-.5 1.2-1 1.8-1.4.9-.7 1.7-1.4 2.6-2.2.3-.2.5-.5.7-.7.2-.2.5-.5.7-.8l-.2-.2c-.2.1-.4.3-.6.4-.1.1-.2.1-.3.2l-5.3 5zm55.1-46.6c.3-.2.6-.4.8-.6.5-.3.9-.7 1.4-1.1 1-.8 2-1.7 3-2.6l-5.2 4.3zm-15.1 12.4c1.4-1.1 2.8-2.3 4.2-3.4.7-.6 1.4-1.1 2.1-1.7h-.2l-6.1 5.1z"/><path fill="#6B4226" d="M66.65 345.45c-.1.4-.2.9-.4 1.3-.3.5-.5 1-.8 1.5-.6 1.2-1.3 2.4-1.9 3.5l-1.8 3.6c-.5 1.1-.8 2.3-1.2 3.5l-1.2 4.1c-.3 1.3-.6 2.5-.8 3.8l-.3 1.9-.3 2.4c-.1.6-.1 1.2-.1 1.8-.1.9-.1 1.8-.1 2.7 0 .9 0 1.8.1 2.7.3 3.6.9 7.2 1.5 10.8.2 1.5.5 3 1 4.4.8 2.3 1.7 4.4 2.6 6.7.1.2.1.4.1.7 0 .2-.1.3-.1.4 0 0 0 .1-.1.1s-.2.1-.2.1c-.5.1-.6-.4-.8-.8-.7-1.9-1.6-3.7-2.2-5.7-.7-2.3-1.2-4.7-1.7-7-.1-.4-.2-.7-.2-1.1 0-.2-.1-.3-.1-.5-.2-.8-.3-1.6-.4-2.4-.1-.5-.1-1.1-.1-1.6 0-1-.1-2-.1-3v-3c0-2 0-4 .1-6 0-1.5.5-3 .7-4.5.1-.5.1-.9.3-1.4.5-2 .9-4.1 1.7-6 1.5-3.6 3.4-7 5.1-10.5.5-1.1.9-2.3 1.3-3.5.2 0 .3.1.5.1.1.1.1.2.1.3.1.2.1.3.1.5-.2-.3-.2-.1-.3.1zm14.6 98.1c-.1.1-.1.3-.2.4-.1 0-.1 0-.2-.1-.4-.1-.8-.2-.9-.5-.3-.6-.5-1.2-.7-1.8-.1-.2-.1-.4-.2-.6-1.3-3.3-2.6-6.7-3.9-10-.4-1.1-.8-2.2-1.2-3.4-.1-.4-.1-.8-.1-1.2.2-.1.3-.1.5-.2.3.5.7 1 1 1.5 1.4 3.5 2.7 7 4 10.5.5 1.4 1.1 2.8 1.7 4.3.1.2.2.5.3.7v.2s-.1.1-.1.2z"/><path d="M339.05 354.25c.1.6.3 1.1.6 1.5.9 1.2 2.6 1.6 4.2.8 1.2-.6 2.1-1.4 2.9-2.3.8-.9 1.5-2 2.1-3 .9-1.5 1.5-3.1 2.2-4.7.5-1.1.9-2.1 1.3-3.2s.9-2.2 1.3-3.2c.6-1.5 1.2-2.9 1.8-4.4.4-1.1.9-2.2 1.3-3.3l1.5-3.9c.7-1.8 1.9-3.5 1.4-5.6-.1-.5-.1-.9 0-1.4v-.5c0-1 0-2.1-.1-3.1 0-.5-.1-1-.2-1.6-.1-.5-.3-1-.5-1.6-.7-1.6-1.1-3.3-2-4.8-.3-.5-.6-1-1.1-1.4-1.7-1.8-3.6-3-6.2-3.3h-.6c-.2 0-.4 0-.6.1-2.5.7-4.3 4.2-3.2 6.6.9 1.8 2 3.5 3.2 5 .2.3.4.6.6.8 1.3 2 2.1 4.2 2.7 6.5.1.3.1.7.1 1s0 .7-.1 1c-.7 2.4-1.8 4.7-3.4 6.8-2.1 2.6-4.1 5.4-6 8.2-1.3 1.9-2.3 3.9-2.5 6.2 0 .3-.2.5-.3.8-.2.8-.5 1.6-.6 2.4-.1.5-.1 1.1-.1 1.6v1.6c.3.1.3.3.3.4zm-113.1 77.1c-.1 0-.2-.1-.3-.1 0-.2.1-.5 0-.7-.1-.4-.3-.8-.5-1.2-.2.4-.6.7-.6 1.1-.4 2.2-.6 4.5-1.4 6.6-.1.4-.3.8-.4 1.2-.2.4-.3.8-.5 1.2-1.1 2.3-2.5 4.4-4.3 6.2-2.5 2.5-5.2 4.8-8 7.1-3 2.4-6.2 4.6-9.3 6.9-.3.2-.4.8-.6 1.2.4-.1.9 0 1.2-.2 3.3-2.5 6.6-5 9.9-7.4 5.5-4.1 10.5-8.7 12.9-15.4.7-2.2 1.3-4.4 1.9-6.5zm5.6-83.2c4.2 3.8 8.4 7.5 12.5 11.3 4.2 3.8 7.7 8 8 14.1 0 .3.5.6.7.9.3-.3.5-.6.6-.6-.3-2.1-.7-4-1.4-5.7-.2-.4-.4-.9-.6-1.3-.6-1.3-1.4-2.4-2.3-3.5-2.7-3-5.7-5.7-8.7-8.4-.3-.3-.6-.5-.9-.8-.6-.5-1.2-1.1-1.8-1.6-4-3.4-7.9-6.9-10.2-11.9-.1-.2-.6-.3-1-.4v.8c1.4 2.6 2.9 5.1 5.1 7.1zm129.8-62.1l.3 2.5c.1.9.2 1.7.4 2.6.4 2.3.8 4.5 1.3 6.8 0 .2.2.3.2.4.5 1.6 1.3 3.1 1.5 4.7.5 3.4.6 6.8 1 10.1.1.6.4 1.1.7 1.6.8 1 1.3.9 2-.2 1-1.8 1.9-3.6 2.1-5.8 0-.5.3-.9.4-1.4l.6-2.7c.1-.5-.1-1.2.2-1.7.5-1.1.7-2.2.9-3.3.1-.7.1-1.5.1-2.2v-1.1c0-.7-.1-1.5-.1-2.2 0-1.9-.1-3.7-.3-5.6-.2-1.8-.6-3.6-.9-5.4h.2c0-.5.1-1 0-1.5 0-.2 0-.3-.1-.5-.6-2.9-2.2-5.5-5.5-3.2-1.8 1.3-3.3 3.1-4.9 4.7-.1.1-.2.4-.2.7v.2c-.1.9 0 1.7.1 2.5zm-195.8 79.7c-.7-.3-1.5-.6-2.2-.9-.7-.3-1.5-.6-2.2-.8-.1 0-.2-.1-.3-.1-.8-.3-1.6-.5-2.5-.8-.9-.3-1.8-.5-2.8-.6-.5-.1-.9-.1-1.4-.2-.5-.1-1-.1-1.5 0h-6c-.7 0-1.4.1-2 .1h-.3c-2.5.3-5.1.9-7.6 1.5-.5.1-1 .3-1.5.4-1.8.5-3.5 1.1-5.3 1.2h-.1c-.8 0-1.6 0-2.4-.2-2.1-.4-4.1-.8-6.2-1.4l-3.4-.9-3.5-.6c-.7-.1-1.4-.2-2.1-.2-.7 0-1.4-.1-2.1-.1h-8.2c-.7 0-1.4.1-2 .1-.3 0-.5.1-.8.1-.5.1-1.1.3-1.6.5-.2.1-.4.1-.7.2-.2 0-.4 0-.6.1-2.2.4-4.5.7-6.7 1.2-1.1.2-2.2.5-3.3.7-1.7.4-3.4.8-5.1 1.1-.4.1-.7.3-1 .5-.1.1 0 .5.1.7 0 .1.1.1.1.1.2.1.3.1.5.1s.4 0 .6-.1l3.8-.9 5.1-1.2c.1 0 .3-.1.4-.1.8-.2 1.6-.4 2.5-.6.6-.2 1.3-.3 1.9-.5.3-.1.6-.1 1-.2s.6-.1 1-.1c.5-.1 1-.1 1.5-.1 1-.1 1.9-.2 2.8-.2 1.5-.1 2.9-.2 4.3-.2.9 0 1.7-.1 2.5-.1l3.2.3c3 .2 5.8.2 8.4 1.1.6.2 1.1.3 1.7.5l1.6.3c.7.1 1.4.2 2.1.4.5.1 1 .2 1.5.4.3.1.5.1.8.2.8.2 1.5.3 2.3.3.9 0 1.8-.1 2.7-.3l1.1-.3c.4-.1.7-.2 1.1-.4.6-.2 1.3-.4 1.9-.6 1.9-.6 3.8-1 5.8-1.2l1.5-.3c.6-.2 1.2-.3 1.9-.4 1.2-.2 2.5-.3 3.7-.3 3.1 0 6.1.6 9.1 1.4 2.2.6 4.4 1.7 6.5 2.5h.7s.4-.1.6-.1c-.1-.1-.1-.2-.2-.3-.1-.1-.2-.3-.3-.4-.2-.1-.3-.2-.4-.3zm87.8 19.6c0 .3.1.5.2.8.2.8.5 1.6.5 2.4.1 2.4 0 4.9 0 7.3h.1v4c-.1 1.8-.1 3.6-.4 5.4-.4 2.5-1 5.1-1.6 7.6-.4 1.9-.8 3.7-1.4 5.5-1.4 3.8-2.8 7.6-4.4 11.3-1.7 3.8-3.6 7.6-5.6 11.2-.9 1.6-1.8 3.1-2.7 4.6-.9 1.5-1.9 3-2.9 4.5-3.1 4.5-6.3 9-9.6 13.5-1.5 2.1-3.1 4.1-4.6 6.1-.2.3-.1.7-.1 1.1.4-.2.8-.2 1-.5.5-.6.9-1.2 1.3-1.8 1.8-2.4 3.8-4.8 5.5-7.2 3.2-4.5 6.3-9 9.3-13.7 2.5-3.9 4.8-7.8 6.9-11.9 2-3.9 3.6-8 5.2-12 .2-.6.5-1.2.7-1.8s.5-1.2.7-1.8c.4-1.2.9-2.5 1.2-3.7.8-2.7 1.5-5.4 1.9-8.1.6-4.4 1-8.9 1.1-13.4.1-3.2-.5-6.4-.9-9.5 0-.3-.6-.6-.9-.9-.1.3-.3.5-.4.8-.1.1-.2.1-.1.2z"/><path fill="#7D4921" d="M164.65 69.45c-.3.1-.5.1-.8.2-.6.2-1.2.1-1.8.2-2 .3-3.9.5-5.9.8l-8.2 1.2c-.5.1-1.1.1-1.6.3-1.9.5-3.9 1.1-5.8 1.6-1.4.4-3 .7-4.3 1.3-3.3 1.6-6.6 3.2-9.8 5-4.7 2.6-8.6 6.1-12.5 9.6-2.6 2.4-5 5.1-7.4 7.6-1.8 1.9-3.6 3.8-5.2 5.8-3.2 4.1-5.2 8.9-7.5 13.5-1.4 2.9-3.3 5.6-4.8 8.4-2 3.7-5.6 6.2-6.6 10.5-.5 2.2-1.6 4.2-2.6 6.2-1 2.1-2.1 4.1-3.5 5.9-1.9 2.5-3.8 4.8-4.8 7.9-.3 1.1-.9 2.2-1.2 3.3-.6 2.2-1.2 4.4-1.6 6.7-.5 3-.9 6-1.4 9.1-.2 1.6-.5 3.3-.7 4.9 0 .3-.1.5-.2.8-.5 2.1-1 4.2-1.4 6.2-.1.7-.2 1.3-.2 2 0 .3.1.8.4.9.2.1.7 0 1-.2 1.4-.9 2.6-1.9 4.1-2.7 1.8-.9 3.6-1.9 5.5-2.4 1.9-.6 3.9-.7 5.8-1 .4-.1.8-.1 1.2-.2 2.4-.7 4.9-.8 7.4-.5 2.1.3 4.2.4 6.3.7.5.1 1.1.2 1.6.4 1.7.5 3.4 1 5.1 1.6 1.4.4 2.7.8 4 1.4 1.9.8 3.8 1.7 5.6 2.8 2 1.1 3.9 2.4 5.6 3.8 1.5 1.2 2.7 2.8 4.1 4.1 2.9 2.7 4.5 6 4.3 10.1-.1 1.1.4 1.7 1.5 1.9 2 .3 3.9.7 5.9.9 2.9.3 5.9.6 8.8.7 5.9.2 11.7.3 17.6.4v-.1c.8 0 1.7.1 2.5 0 4.7-.6 9.4-1.2 14.1-1.9.3 0 .5-.6.7-1 .1-.2.2-.6.3-.7l2.1-1.2c2.1-1.1 4.3-2.3 6.4-3.4 2.2-1.2 4.4-2.4 6.6-3.4 2.6-1.2 5.3-2.3 8-3.5.8-.4 1.7-.7 2.5-1 2.3-.9 4.5-1.8 6.8-2.6.8-.3 1.7-.7 2.5-.9 1.9-.5 3.8-1 5.7-1.4l7.7-1.8h.4c1.1 0 2.2 0 3.2-.1 1.2-.1 2.5-.6 3.7-.6-6-39.9-37.2-83.3-68.5-118-.3-.2-.5-.1-.7-.1zm179.1 144.8c-.3-2.2-.5-4.3-.8-6.5 0-.2-.1-.5-.2-.7-.5-1.9-1-3.8-1.6-5.7-.5-1.5-1-2.9-1.6-4.3-1.1-2.4-3-4.2-4.9-6-4.4-3.9-8.2-8.3-11-13.5-1-1.8-2-3.6-2.9-5.5-.9-2-1.8-4.1-2.6-6.1-.6-1.5-1.2-2.9-1.7-4.4-.5-1.6-.9-3.3-1.4-4.9-.1-.5-.3-1-.5-1.5-.8-1.7-1.6-3.4-2.5-5.1-1.2-2.5-2.5-5-3.6-7.6-.6-1.5-1.4-3.2-1.4-4.8 0-2.5-.9-4.8-1.4-7.1-.2-1.1-.5-2.3-.8-3.3-.9-2.5-1.7-5-2.7-7.4-1.2-2.8-2.4-5.6-4-8.1-2.4-3.8-6.1-6.4-9.5-9.2-2.7-2.1-5.4-4.2-8.1-6.4-4.4-3.7-8.7-7.4-13-11.1-1-.8-2-1.6-3.1-2.2-4-2.2-8.1-4.3-12.2-6.4-2-1-4.1-1.8-6.1-2.6-.9-.4-1.7-.7-2.7-1-1.7-.5-3.5-.9-5.2-1.3-.2 0-.4-.2-.5-.2l-2-.6c-.7-.2-1.5-.3-2.2-.4-1.1-.2-2.2-.5-3.4-.7l-1.8-.3c-.8-.2-1.6-.4-2.4-.5-1.3-.1-2.6 0-4 0-.9 0-1.9.1-2.7-.3-1.7-.8-3.4-.9-5.3-.9-1 0-2.1-.1-3.1-.3-5.2-.6-10.4-.8-15.7-.4-4.7.3-9.5.5-14.2.8-1.6.1-3.2.3-4.7.5-1.4.2-2.8.5-4.3.5-1.1 0-2.2 0-3.2.1h-.1c-.5 0-1 .1-1.6.1h-.1c-.5.1-1 .1-1.5.2 31.3 34.8 62.5 78.2 68.5 118h.4c4.2.2 8.4.6 12.7.9.3 0 .5.1.8.2 2 .5 4 1 5.9 1.6 1.1.3 2.1.7 3.1 1.1 2.2.8 4.4 1.5 6.5 2.6 3.3 1.7 6.5 3.7 9.7 5.7 2.4 1.6 4.6 3.4 6.9 5.2 1.5 1.2 2.9 2.6 4.6 3.6 2.5 1.5 5.5 1.2 8.2 1.9 1.8.5 3.7.8 5.5 1.3 0 0 .1 0 .1.1 2.4 1.1 4.7 2.2 6.6 4 3.3 3.1 5.8 6.5 5.9 11.3 0 .4.1.9.1 1.3-.3 3.5.6 7.1-.8 10.5-.2.4-.1 1-.2 1.4-.2.9-.3 1.9-.7 2.8-.7 1.8-1.5 3.5-2.2 5.3-.7 1.7-.2 2.2 1.5 2.3 4.6.2 9.2-.6 13.8.8 2.5.8 5.2.8 7.6 2.1.4.2.9.2 1.3.2.3-.1.9-.4.8-.6-.1-1.4.5-2.5 1-3.7 1-2.2 1.8-4.6 2.7-6.8.4-.9.9-1.8 1.3-2.7.6-1.2 1.1-2.4 1.6-3.5 1.2-2.5 2.4-4.9 3.5-7.4.5-1.2.9-2.4 1.3-3.7.3-.8.6-1.6.7-2.4.2-2.6.9-5.2-.3-7.7-.1-.2-.1-.4-.1-.6zm-204 95.2c9 .5 18-15.5 21-28.5 3.1-13-17-47.8-17-47.8-.7-.2-1.4-.3-2.1-.3s-1.5.1-2.2.3c-.8.2-1.6.6-2.4 1-.8.4-1.5 1-2.2 1.5-.4.3-.7.6-1.1.9-2.5 2.1-4.3 4.8-6.1 7.6-.8 1.2-1.5 2.5-2.2 3.7-.7 1.3-1.4 2.5-2.1 3.8-.6 1.2-1.3 2.5-1.8 3.7-.6 1.3-1.2 2.5-1.8 3.8-.4.8-.8 1.6-1.2 2.5-.4.9-.8 1.6-1.2 2.5-.2.4-.4.8-.5 1.3-.5 1.3-1 2.6-1.7 3.7-.2.4-.5.7-.7 1.1-.5.7-1 1.3-1.6 1.9l-.9.9c-.6.6-1.3 1.1-1.9 1.6-.7.5-1.4 1-2 1.5l-2.7 1.8s-1.8 1.1-2.7 1.7c-.2.1-.5.3-.8.3-.9.1-1.7.3-2.5.5s-1.6.5-2.4.9c-.8.3-1.5.7-2.2 1.2-.4.2-.7.4-1.1.7l-1 .7c-1.2.9-2.4 1.9-3.5 2.9s-2.3 2.1-3.3 3.1c-2.1 2.2-4 4.6-5.5 7.3-.2.3-.4.7-.5 1.1 1.8-2.1 9.1 10.4 22 19.5 13.8 9.8 28.8-8.9 37.9-8.4zm-22.3 214.9h.6c.6 0 1.3.1 1.9.3l.9.3s.6.1.9.1h.4s.4 0 .6.1c.4 0 .8.1 1.1.1.7.1 1.3.2 2 .5.6.2 1.3.4 1.7.5.7 0 1.3-.1 2-.1h1.4c.1 0 .3.1.4.1s.1 0 .2.1l.6.3c.4.2.8.3 1.2.4.4.1.9.1 1.3.2.3.1.6 0 .9.1 1.3.4 2.6.9 4 1.4.4.2.9.3 1.3.4h.1c3.5-.3 7.7-.3 12.7.3.4 0 .8-.1 1.2-.2 2-.4 4.1-.7 6.1-1.1 15.1-8.5.3-55.4-2.6-64-.1 0-.2.1-.2.2-.2.1-.3.2-.5.3h-.2c-3.4-.4-6.9-.9-10.3-1.1-6.3-.4-12.6-.6-18.9-.8l-21.1-.9h-2c-.6 0-1.2 0-1.2-.8v-.3c0-.1.1-.1.1-.2.1-.1.3-.2.5-.2h1.1c1.4.3 2.7.4 4.1.6l4.1.3c1.1 0 2.2.1 3.3.1h11.6c1.1 0 2.2.1 3.3.1 5.9.3 11.7.5 17.6.9.6 0 1.3.1 1.9.2.6.1 1.3.1 1.9.2 1.3.2 2.6.3 3.9.5.1 0 .2.1.3.2l.3.3c.1.1.2.3.3.4-3.3-9.8 10.3-38 10.3-38h-3.5v.3c-6.2-.7-12.5-1.3-18.7-2-3-.3-6.1-.4-9.1-.8-2.7-.3-5.4-.6-8-1-2.7-.3-5.3-.7-8-1.2-3-.5-5.9-1.6-8.9-2.4-.2-.1-.4-.1-.6-.2l-3.2-.9-1.2-.3c-1.3-.3-2.5-.7-3.8-1.1-.3-.1-.5-.2-.8-.2-.3 0-.5-.2-.8-.2-1.6-.5-3.2-1-4.4-1.9-1.1-.9-2.2-1.9-3.2-2.9-.5-.5-1-1.1-1.5-1.6-.5-.6-.9-1.1-1.3-1.7-2.1-3-3.8-6.3-5.5-9.5-.4-.8-.8-1.6-1.2-2.3-1.3-2.3-2.7-4.5-4.4-6.5-.3-.3-.5-.6-.8-.8-.9-.8-1.8-1.5-2.7-2.2-.2-.2-.4-.5-.6-.8.1-.1.3-.2.4-.3.1-.1.3-.2.4-.2.6-.2 1.3-.5 2-.6.2-.1.4-.1.7-.1 1.1-.1 2.2-.3 3.3-.6 2.1-.5 4.2-1.3 6.3-1.9.5-.1 1.1-.3 1.6-.4l1.6-.3c2.9-.5 5.7-.8 8.6-1.2l3.4-.3h1s.7.1 1 .1c.7.1 1.4.3 2 .3 4.7.6 9.4 1.3 14.1 1.7 4.9.5 9.8.6 14.7 1.2 3.5.4 7 .9 10.4 1.4 3 .4 6 .9 9 1.3l2.9.3 4.3.3 4.4.3c3.9.2 7.7.5 11.5 1.3 4.4 1 8.9 1.7 13.4 2.1 5.7.5 11.3 1.7 16.8 3 2.7.6 5.4 1.3 8.1 1.6h.1c1.1.1 2.3 0 3.5-.2.3-.1.6-.1.9-.2.3 0 .5-.1.7-.1.2 0 .4 0 .6.1.3.1.5.2.7.4.1.1.3.2.4.3.3.2.5.5.7.7.1.1.1.2.2.2.1.2.3.4.4.5.1.1.1.2.2.3.2.2.3.5.4.7.1.1.1.3.2.4 0 .1.1.3.1.4 0 .2.1.3.1.5v.3c.1.4.1.9.1 1.3.8-2.1 1.3-4 1.7-5.7 2-7-47.9-23.2-63.9-29.2.1.1.2.3.3.4.1.1.1.2.2.3-.2 0-.4.1-.6.1h-.7c-2.2-.8-4.3-1.9-6.5-2.5-3-.8-6.1-1.3-9.1-1.4-1.2 0-2.5.1-3.7.3-.6.1-1.2.2-1.9.4-.5.1-1 .3-1.5.3-2 .2-3.9.6-5.8 1.2-.6.2-1.3.4-1.9.6-.4.1-.7.2-1.1.4l-1.1.3c-.9.2-1.8.3-2.7.3-.8 0-1.5-.1-2.3-.3-.3-.1-.5-.1-.8-.2-.5-.2-1-.3-1.5-.4-.7-.1-1.4-.3-2.1-.4l-1.6-.3c-.6-.1-1.2-.3-1.7-.5-2.7-.9-5.4-.9-8.4-1.1-1-.1-2.1-.1-3.2-.3-.8 0-1.7.1-2.5.1-1.4.1-2.8.1-4.3.2-.9.1-1.9.1-2.8.2-.5 0-1 .1-1.5.1-.3 0-.6.1-1 .1-.3.1-.6.1-1 .2-.6.1-1.3.3-1.9.5-.8.2-1.6.4-2.5.6-.1 0-.3.1-.4.1l-5.1 1.2c-1.3.3-2.5.7-3.8.9-.2 0-.4.1-.6.1-.2 0-.4 0-.5-.1l-.1-.1c-.1-.2-.2-.6-.1-.7.2-.3.6-.5 1-.5 1.7-.4 3.4-.8 5.1-1.1 1.1-.2 2.2-.5 3.3-.7l6.7-1.2c.2 0 .4 0 .6-.1.2 0 .5-.1.7-.2.5-.2 1-.4 1.6-.5.3-.1.5-.1.8-.1.7-.1 1.4-.1 2-.1h8.2c.7 0 1.4 0 2.1.1.7 0 1.4.1 2.1.2 1.2.1 2.3.3 3.5.6 1.2.2 2.3.5 3.4.9-6.2-1.4.5-32 .5-32s-15.7-5-24.2-6.9c-.5 0-1-.1-1.4-.1-.2 0-.3 0-.5-.1-.5-.1-1-.3-1.5-.5-1-.1-1.9-.3-2.8-.5-2.2-.2-4.3-1.1-6.3-1.9-.4-.1-.7-.3-1.1-.4-.6-.2-1.1-.7-1.5-1.2l-.3-.6c-.3-.7-.7-1.4-1-2.1-1.1-1.2-1.8-2.9-2.3-4.8-.2-.5-.4-1-.5-1.5-.2-.7-.5-1.4-.7-2.1-.6-2.2-1-4.4-.4-6.7.1-.6.3-1.1.5-1.7l1.2-3.3c.2-.5.5-1.1.8-1.6 2.3-4.4 6-7.5 9.4-10.9.5-.5 1-1 1.6-1.4 1.4-1.1 2.9-2 4.5-2.8.3-.2.6-.3 1-.5.5-.2 1.2-.3 1.7-.5.1-.1.3-.2.4-.3s.2-.3.3-.4c-.2-.1-.3-.2-.4-.3-.1-.1-.3-.2-.5-.3h-.2c-.2 0-.5 0-.7.1-2.7.4-5.3.2-8-.4-1.5-.3-3.2-.4-4.7-.7-.5-.1-.9-.2-1.4-.2l-1.4-.3c-.3 0-.6-.1-.8-.2-.3-.1-.6-.1-.8-.1h-1.2s-.8-.1-1.2-.1c-.2 0-.4-.1-.6-.1-.6-.1-1.2-.3-1.7-.6-.2-.1-.3-.1-.5-.2-.3 0-.7-.1-1-.1-1.1-.2-2.1-.5-3.2-.7h-.2c-2.2-.4-4.4-.8-6.7-1.2-.3-.1-.7-.1-1-.2l-1-.3c-.2 0-.3-.2-.4-.2-2.1-.5-4.2-.9-6.3-1.3l-3.1-.6c-.5-.1-1-.2-1.6-.3-.5-.1-1-.2-1.6-.3-.2-.1-.4-.1-.6-.1-.5 0-.9.3-1 .9l-2.7 10.9c-.1.4-.2.8-.3 1.3-.3 1.3-.6 2.5-.8 3.8-.9 5.8-1.8 11.6-2.6 17.4l-.3 3c-.2 2-.3 4-.5 6-.1 1-.1 2-.2 3l-.3 3.7c-.1 1.2-.3 2.4-.5 3.6l-.6 3.6c-.2 1.2-.5 2.4-.7 3.6l-.3 2.1c-.3 2.1-.4 4.2-.9 6.2s-.4 3.9-.2 5.8l.3 1.9c.4 2.6.7 5.3.9 7.9.1 1.3.3 2.6.4 4 .2 1.3.3 2.6.5 3.9l.6 4c.4 2.7.9 5.3 1.5 8 .3 1.3.5 2.6.8 4 .8 3.5 2 6.9 2.9 10.4.2.8.3 1.6.5 2.4.1.3.1.5.2.8.3.7.5 1.3.8 2 .8 2 1.6 4 2.5 5.9 1.6 3.1 3.3 6.1 5 9.2 1.7 3.1 3.3 6.1 4.9 9.3 1.2 2.4 2.3 4.9 3.4 7.4 1 2.5 2 5 2.9 7.6.9 2.8 1.8 5.5 2.5 8.4.8 2.8 1.5 5.6 2.2 8.5l.6 2.8c.4 1.9.7 3.8 1.1 5.7.2 1 .4 1.9.6 2.8.7 3.2 1.4 6.4 2 9.6.2 1.1.5 2.1.7 3.2.4 2.1.8 4.2 1.2 6.4l1.2 6.3.6 2.6c.2.8.5 1.7.8 2.5.6 1.6 1.3 3.2 2.1 4.7.3.6.7 1.2 1.1 1.9.2.3.3.5.5.8l.6.9c.6.8 1.1 1.5 1.8 2.3l13.1 13.5c.6.4 1.1.9 1.7 1.2.7.4 1.4.8 2.1 1.1.6.3 2.5 1.3 3.7 2 .3-.1.7-.1 1 0 .2 0 .3.1.5.1h.1c.2.1.3.1.5.2.7.3 1.5.6 2.5.9-.1 0-.1 0-.2.1.8.3 1.6.7 2.1.8 1.3.2 3.6.8 4.4.8 1.2.7 2 .6 2.9.6zm-37.8-226.1c-.1.3-.2.5-.3.8-.6 1.6-.9 3.2-1 5v1c0 .5 0 1.1.1 1.6.1.9.2 1.7.4 2.6s.4 1.8.7 2.6c.3.9.6 1.7 1 2.6.2.4.4.8.6 1.3.5 1 1 2.1 1.6 3.1.5.7 1.1 1.4 1.7 1.9.5.4 1 .6 1.4.7.4 0 .7-.1 1.1-.4l.8-.8c.3-.4.6-.7.9-1 1-.9 2.1-1.5 3.4-2 1.1-.4 2.2-.8 3.4-.9.4-.1.8-.1 1.2-.1.8-.1 1.5 0 2.1.2.7.2 1.3.4 1.9.8.4.2.8.4 1.1.7-13-9.3-20.3-21.7-22.1-19.7zm207.1 163c-1.8 1.2-3.7 2.4-5.5 3.6-1.8 1.2-3.7 2.4-5.5 3.6-1.2.8-2.4 1.7-3.7 2.5-3.7 2.5-7.3 5-10.9 7.5-2.2 1.5-4.3 3.1-6.5 4.7s-4.3 3.2-6.5 4.7c-4.5 3.1-9.1 6.1-13.7 9-3.1 2-6.3 3.7-9.5 5.5-4.2 2.3-8.4 4.4-12.6 6.7-3.2 1.7-6.3 3.6-9.5 5.3-2.9 1.6-5.8 3.1-8.8 4.6l-3.6 1.8c-1.2.6-2.4 1.2-3.6 1.7-1.1.5-2.2.9-3.2 1.3-1.1.4-2.2.8-3.3 1.3l-.6.3c-.6.3-1.2.5-1.8.7l-6.5 1.5c-2.2.5-4.3.9-6.5 1.4-.7.1-1.4.3-2.1.4l-4.2.6-2.1.3c-.7.1-1.4.1-2.1.2l-3.4.3-2.9.3h-1.8c-1.8-.1-3.6-.3-5.4-.6-.5-.1-1-.2-1.4-.3-.4-.1-.8-.4-1.2-.6-.2-.1-.5-.1-.7-.2h-.6c-.1 0-.1.1-.2.2 0 .1-.1.2-.1.2l-.2-1.9-6.5-.9c.5.1 1 .1 1.5.2.2 0 .4.1.6.1.6.2 1.2.4 1.8.4.3 0 .5 0 .7.1.2.1.4.1.6.1.3.1.6.3.8.5.2.2.3.5.4.8 0 .2.1.4.1.6v1.7c0 .6 0 1.3.1 1.9 0 .4.1.7.2 1.1 0 .2.1.5.1.7 0 .1 0 .2.1.4.1.3.1.6.2.9v.1l.3 1-.5-4.7v.1c.2.8.3 1.7.5 2.5.1.4.1.9.1 1.3v1.3c-.1-.2-.1-.3-.1-.5l.1 1.4.6 3.4c0-.3 0-.6.1-.9.5 2.3.9 4.5 1.4 6.9 0 .1 0 .2.1.3-.1-.1-.2-.3-.3-.5l-.3-.6.5 2.8h.2c.6 1.4 1.2 2.9 1 4.5v1c.1.3.1.7.2 1v.1c.1.8.3 1.6.4 2.5l.3 2.5c-.1-.2-.2-.5-.3-.7l2.1 11.1h16.6c-.1-.1-.2-.2-.3-.4l-.4-.4c2.7-2.5 5.3-5.1 7.9-7.5.7-.7 1.4-1.3 2.2-1.9 1.6-1.4 3.2-2.9 4.8-4.3.7-.6 1.4-1.3 2.1-1.9.2-.2.4-.5.6-.8.1-.1.1-.2.2-.2.1.1.1.2.1.3v.1l.7-.6h-.1c-.2 0-.4.1-.6.1.6-.5 1.1-1 1.7-1.5 1.1-.9 2.1-1.9 3.2-2.8.3-.3.6-.5 1-.7.1-.1.2-.1.3-.2l3.2-3c8.3-7.5 17-14.5 25.4-21.8.1.1.2.3.4.4-.3.2-.5.4-.8.7l6.4-5.3-3.2 2.6c0-.1.1-.2.1-.3l.1-.1c.1-.1.1-.2.2-.3 0-.1.1-.1.2-.2s.2-.2.2-.3c.1-.1.1-.2.2-.2l.3-.3.3-.3.3-.3c.1-.1.2-.2.4-.3l.3-.3.4-.4s.2-.2.3-.2c.2-.1.4-.3.5-.4l.2-.2c.2-.2.4-.3.6-.5l.1-.1c.2-.2.5-.4.7-.5h.1c.3-.2.5-.4.7-.5 1.3-.9 2.3-1.6 2.9-1.7l4.7-3.9c-.7.5-1.3 1-2 1.5-.1-.1-.1-.2-.2-.3-.1-.1-.1-.2-.2-.3 1.6-1.1 3.1-2.2 4.7-3.3.1.1.1.2.2.3l1.7-1.4c-.2.2-.5.3-.7.5-.1 0-.1.1-.2.1h-.8c.6-.5 1.1-.9 1.5-1.3.3-.2.6-.5.9-.7.1-.1.3-.2.4-.4 1.6-1.4 3.2-2.8 4.9-4.1 2.4-1.9 4.8-3.6 7.2-5.5 1.2-1 2.2-2.2 3.4-3.1.7-.6 1.4-1.1 2.1-1.6.5-.4 1-.7 1.5-1.1-.2.2-.3.5-.5.7-.1.1-.1.2-.2.3v.1l1.7-1.4c-.1.1-.3.1-.5.1h-.3c.5-.4.9-.9 1.4-1.3.5-.4 1-.9 1.5-1.3.7-.5 1.4-1.1 2-1.6 1-.7 2-1.5 2.9-2.3l1.6-1.3c2.7-2.2 5.2-4.6 7.9-6.9.1-.1.2-.2.4-.3l1.2-.9c.1-.1.3-.2.4-.3.3-.2.6-.3.9-.4.2-.1.3-.1.5-.1l.1.1 3.1-2.5c-.1.1-.2.1-.3.1-.1 0-.2.1-.3.1 0-.1.1-.2.1-.3 0-.1.1-.2.2-.2l.1-.1c.1-.1.2-.2.3-.4.7-.7 1.9-1.6 3.7-2.7-.1.1-.2.3-.3.4-.1.2-.2.3-.3.5l5.5-4.6c-1 .8-2 1.5-2.9 2.3-.5.4-1.1.7-1.7 1.1 0 0-.1 0-.1.1.9-1.1 1.9-2 3-2.8.2-.1.4-.3.6-.4h.1c.2-.1.4-.3.7-.4h.1c.2-.1.5-.2.7-.3l4-5.4c-1.2.5-2.5 1.4-3.8 2.3zm51.7-52.5c0 .1-.1.3-.1.4v1c0 .1 0 .3-.1.4h-.3v-1.4c0-.4 0-.9-.1-1.3 0-.1-.1-.3-.1-.4-.1-.3-.3-.5-.5-.8-.1-.1-.2-.3-.2-.4-.1-.2-.2-.3-.2-.5-.2-.3-.3-.6-.4-.9 0-.2-.1-.3-.1-.5.1-.9.1-1.7.2-2.6.2-2.6.5-5.2.7-7.8.2-2.5.3-5.1.5-7.7.2-2.6.3-5.1.5-7.7l.3-2.7c0-.3.1-.6.1-.9 0-.6-.3-1.1-.5-1.7-.5.4-1.3.6-1.5 1.1-1 2.1-1.9 4.3-2.7 6.5-.3.8-.5 1.6-.7 2.4-.2.8-.3 1.6-.5 2.4l-1.8 8c-.4 1.9-.8 3.8-1.3 5.7-.3 1.1-.7 2.1-1.1 3.2-.1.4-.3.7-.4 1.1-.4 1-.7 2.1-1.2 3.1-.4 1-.8 2-1.2 3.1l-1.2 3c-.8 1.9-1.7 3.8-2.6 5.6-.7 1.6-1.5 3.1-2.2 4.7-.7 1.6-1.5 3.1-2.3 4.7-.2.4-.4.8-.6 1.1-.6 1.1-1.3 2.2-2 3.3-.1.1-.1.2-.2.3 0 .1-.1.2-.1.2-.2.5-.1.8.4 1.1l2.3-1.9c0-.1-.1-.1-.1-.2.3-.4.7-.7 1.1-1 .1-.1.2-.2.3-.2.7-.6 1.5-1.2 2.3-1.7.1-.1.2-.1.3-.2.4-.3.8-.5 1.2-.8l5.4-3.9s0-.1-.1-.1c.3-.2.7-.4 1-.5l7.2-5.5.6-.3.8-1.1c.1.1.2.2.2.3-.1.1-.2.3-.3.4l2.9-1.5.3-6.9-1.4-1.3c-.2.1-.3.1-.4.2 0 .7-.1.9-.1 1.1zm-217.3-44.7c2 .6 4.1 1 6.2 1.4.8.2 1.6.2 2.4.2h.1c1.8-.1 3.6-.6 5.3-1.2.5-.2 1-.3 1.5-.4 2.5-.7 5-1.3 7.6-1.5h.3c.7-.1 1.3-.1 2-.1h7.5s1 .1 1.4.2l2.8.6c.8.2 1.6.5 2.5.8.1 0 .2.1.3.1.8.3 1.5.5 2.2.8.7.3 1.5.6 2.2.9.1.1.2.1.3.3 16 6 65.9 22.2 63.9 29.2-.5 1.7-1 3.6-1.7 5.7-.1.8-.2 1.6-.6 2.5-1.6 4.1-4.1 7.4-7.9 9.6h-.1s-.1.1-.2.1c-2.1 1.3-4.3 2.5-6.5 3.5-.4.2-.9.4-1.3.5-.5.2-.9.3-1.4.5-.9.3-1.8.6-2.8.9l-1.8.6-4.5 1.5s-3 1-4.5 1.4c-3.9 1-7.8 2.1-11.8 2.7-5.3.8-10.6 1.1-16 1.6 0 0-13.6 28.3-10.3 38 2.9 8.7 17.7 55.5 2.6 64l3.4-.6c2.8-.5 5.7-.8 8.5-1.4 1.9-.4 3.8-.9 5.6-1.5l1.8-.6c1.9-.7 3.7-1.5 5.6-2.3 1.8-.8 3.7-1.6 5.5-2.5.9-.4 1.7-.8 2.6-1.3l5.1-2.7c.8-.5 1.7-.9 2.5-1.4 4.9-2.7 9.6-5.5 14.5-8.1 2.6-1.4 5.3-2.8 7.9-4.2 2.7-1.4 5.3-2.8 7.9-4.3 1-.6 1.9-1.1 2.9-1.7 2.9-1.8 5.7-3.7 8.5-5.6 1.4-1 2.8-1.9 4.1-2.9 4.1-3 8.2-6 12.3-8.9 2.4-1.7 4.7-3.4 7.1-5.1.8-.6 1.6-1.1 2.4-1.7 3.2-2.2 6.5-4.3 9.9-6.3 2.7-1.6 5.2-3.4 7.8-5.3.9-.6 1.7-1.2 2.6-1.8 2.4-1.6 4.9-3.1 7.4-4.7.1 0 .1-.1.2-.1s.1-.1.2-.1c2.7-2.1 5.5-4.2 8.2-6.4.4-.3 1.6-1.5 2.5-2.5.1-.1.1-.3.2-.4 1.3-1.5 2.3-3.2 3.1-5 .3-.6.5-1.2.7-1.9.9-2.5 2.3-4.9 3.5-7.3.9-1.9 1.9-3.9 2.8-5.8.9-1.9 1.9-3.9 2.8-5.8.3-.7.6-1.3.9-2l2.7-6 1.2-3.3c.4-1.1.7-2.2 1.1-3.3.3-.7.5-1.5.8-2.2.3-.7.5-1.5.7-2.2.5-1.6 1-3.1 1.3-4.7.4-2.3.6-4.6 1.1-6.9l.6-2.6c.2-.9.5-1.7.8-2.6.3-.9.6-1.7.9-2.6.3-.9.6-1.7.9-2.6l.3-1c.9-2.2 2.4-3.9 4.8-4.6.2-.1.4-.1.6 0h.6c.3 0 .6.1.9.1.3.1.6.1.9 0 5.3-.7 10.3-2 14-6.3.7-.8 1.2-1.6 1.7-2.5s.8-1.8 1-2.8c.3-1.2.6-2.5.8-3.7.1-.5.1-1 .1-1.5-.1-1.5-.7-2.8-1.2-4.2-.2-.4-.2-.8-.3-1.2v-.5c0-.2 0-.4.1-.5l.3-1c.1-.3.3-.7.5-1 .2-.3.4-.7.5-1 .5-1 .9-2.1 1.3-3.2.3-.7.5-1.5.8-2.3.3-.8.5-1.5.8-2.3.7-1.7 1.3-3.5 2-5.2 1.3-3.5 2.7-7 4-10.5.7-1.7 1.3-3.5 1.9-5.3.4-1 .7-2 1-3 1-3 1.8-6.1 2.7-9.1.8-2.6 1.6-5.3 2.2-8 .1-.3.1-.7.2-1 .1-.7.2-1.4.2-2.1v-1c0-3 .2-6-.1-9-.1-1.1-.4-2.3-.6-3.4l-.9-3.3c-.1-.3-.1-.6-.2-.8-.2-.8-.5-1.7-.9-2.4-.6-1.3-1.4-2.5-2.1-3.7-.9-1.5-2.3-1.9-3.8-2.3-.5-.1-1-.2-1.5-.4h-.4s-.3.1-.4.2l-1.8.9c-.6.3-1.2.6-1.9.9-1.2.6-2.4 1.3-3.6 2-1.3.8-2.6 1.8-3.8 2.7-1.2 1-2.3 2-3.4 3.1s-2.1 2.3-3 3.5c-.9 1.2-1.9 2.5-2.8 3.8-1.5 2.3-3.5 4.3-5.2 6.4l-.9 1.2c-.3.4-.6.8-1 1.1-.1.1-.4.2-.6.3-.1 0-.2.1-.3.1-.1 0-.2.1-.3.1.1-.2.1-.4.2-.6.1-.2.1-.4.2-.5.1-.2.2-.4.3-.5.4-.7 1-1.4 1.4-2.2.2-.4.4-.7.5-1.1.1-.2.1-.4.1-.6.1-1.1.3-2.1.4-3.2s.3-2.1.4-3.2c0-.2 0-.4.1-.7 0-.5 0-.9-.1-1.4-.1-.5-.1-.9-.2-1.4-.1-.7-.3-1.4-.5-2.1-.4-1.4-.8-2.8-1.3-4.1-.5-1.4-1-2.7-1.4-4.1-.4-1.2-.9-2.4-1.4-3.6l-1.5-3.6c-.1-.1-.1-.3-.2-.4-.1-.3-.3-.5-.5-.7-.4-.4-.9-.6-1.5-.8-.1 0-.3-.1-.5-.1l-1.1-.3c-1.1-.3-2.1-.8-3.2-1.1l-1.2-.3c-.4-.1-.8-.2-1.2-.2-1.8 0-3.6-.1-5.3-.1-1.7 0-3.6 0-5.3.1-.9 0-1.7.2-2.6.4-.9.2-1.7.5-2.5.9-1.2.5-2.3 1.2-3.5 1.9-.4.2-.7.5-1.1.7-.5.3-.9.7-1.3 1.1l-.4.4c-.3.3-.5.7-.7 1-1.5 2.4-2.4 5.1-3.6 7.7-1.2 2.7-2.7 5.3-4.5 7.7l-1.8 2.4c-.5.6-1 1.2-1.6 1.8-.6.6-1.2 1.1-1.8 1.5-.6.4-1.2.6-1.9.8l-1 .3c-.3.1-.6.2-.9.4-2.5 1.4-5.3 1-8 1.4-.4.1-.8.1-1.1.2-.8.2-1.5.3-2.3.3-.8.1-1.6.1-2.4 0-1.6 0-3.2-.1-4.8-.1-.7 0-1.5.1-2.2.2-.2 0-.5.1-.7.1-.2 0-.5.1-.7.1h-.2c-.8-.2-1.6-.3-2.4-.4h-1.2c-.8 0-1.6.1-2.4.2-.8.1-1.6.1-2.4.2h-1.2c-6.1-.2-12.2-.2-18.3-.3h-10.4c-1.4 0-2.7-.4-4.1-.6-.5-.1-1-.1-1.5-.2s-1-.1-1.5-.1c-2.3-.1-4.7-.3-7-.4-.8 0-1.6-.1-2.3-.1h-4.3c-1.3 0-2.6-.1-3.9-.3-1.3-.2-2.5-.5-3.8-.9-1.6-.5-3.2-.7-4.8-1.1-.5-.1-1.1-.3-1.6-.4-2.3-.7-4.6-1.7-6.8-2.6-.3-.1-.6-.2-.9-.4-.9-.4-1.8-.7-2.5-1.3-.6-.5-1.2-.9-1.8-1.4-1.8-1.4-3.6-2.9-5.2-4.6-.4-.5-.9-1-1.3-1.5-1.2-1.6-2.2-3.3-3.2-5-1.2-2-2.3-4.1-3.4-6.1-.4-.7-.7-1.4-1.1-2.1-1.8-3.3-3.7-6.6-5.5-9.9-2.4-4.5-5.4-8.6-9-12.2-.5-.5-1-1-1.6-1.5-.1-.1-.3-.2-.4-.3-.2-.1-.3-.3-.5-.4l-.9-.6c-.6-.4-1.3-.7-2-.9 0 0 20 34.8 17 47.8-3.1 13-12 29-21 28.5s-24.1 18.2-38.1 8.4l4.2 2.7c2.8 1.8 5.5 3.7 8.2 5.5 1.4.9 2.7 1.8 4.1 2.8 1.1.7 2.2 1.5 3.4 2.2l1.2.6c.5.2 1 .4 1.6.6 1.3.5 2.6.9 4.1 1.1.3 0 .6 0 .9.1h1.2c.8 0 1.6-.1 2.4-.1.4 0 .8-.1 1.2-.2 1.2-.2 2.3-.5 3.5-.9.4-.1.8-.3 1.1-.5 1.2-.6 2.5-1.1 3.8-1.7.6-.3 1.3-.5 1.9-.8.6-.3 1.3-.5 1.9-.8.5-.2 1-.7 1.5-1 2.2-1.6 4.4-3.3 6.7-4.8 1-.6 2.2-.7 3.4-1.1h.6c.1 0 .1 0 .2-.1 1.5-.9 3.1-.9 4.7-1 .5 0 1.1-.1 1.6-.2 2.1-.4 4.1.4 5.7 1.7.2.1.3.3.5.4.3.3.6.6.8.9.4.5.7.9 1 1.4 1.5 2.7 3.1 5.4 5 7.9 1.1 1.5 2.7 2.3 4.5 2.5.6 0 1.2 0 1.8-.1.6-.1 1.2-.2 1.7-.3 1.7-.3 3.5-.7 5.1-1.2 3.9-1.2 6.6-3.7 8-7.6.5-1.5 1.3-3 1.6-4.6.3-1.8.9-3.62 1.3-5.4.1-.7.3-1.5.3-2.2v-1.8c-.1-.9-.1-1.8-.3-2.6-.1-.62-.4-1.3-.7-1.8-.1-.1-.2-.32-.3-.4-.1-.1-.2-.3-.2-.4-.2-.3-.3-.6-.6-.8-3.4-3.9-6.3-8.1-8.3-12.8-.1-.3-.3-.5-.4-.8-.2-.3-.3-.5-.4-.8-.1-.1.1-.3.2-.5 0-.1.1-.1.1-.2.1 0 .2.1.3.1.1 0 .2.1.3.2.3.3.5.6.7 1 .5 1.3 1.1 2.5 1.7 3.7.6 1.2 1.3 2.3 2.1 3.4l1.1 1.7c1.2 1.6 2.4 3.2 3.7 4.8.5.7 1 1.3 1.3 2.1.9 1.8 1.1 3.8 1 5.8 0 .4-.1.8-.2 1.2-.2 1.2-.4 2.5-.7 3.8-.2 1.3-.5 2.5-.9 3.7-1 3-2 5.9-3.9 8.2-.4.5-.9 1-1.4 1.5-.2.2-.5.4-.8.7-.5.4-1.1.8-1.8 1.1-.6.3-1.3.6-2.1.9-.7.2-1.4.4-2.1.7l-2.1.6c-1.4.3-2.8.6-4.3.6-1 0-1.8-.1-2.6-.4-.5-.2-1-.4-1.5-.7-.2-.1-.5-.3-.7-.5-.4-.4-.9-.8-1.3-1.2-.2-.2-.4-.5-.6-.8-.6-.8-1.1-1.7-1.6-2.6-.1-.2-.2-.3-.3-.4-.2-.2-.3-.5-.5-.7-.1-.1-.3-.3-.5-.4-.5-.3-1.1-.5-1.9-.5h-1c-1.7.1-3.3.2-5 .5-.7.1-1.3.3-2 .5-.2.1-.4.1-.6.1-.6.1-1.3 0-2 .1l-4 .6c-.1 0-.2.1-.2.1l-5.3.3-5.2.3c-.6 0-1.2.1-1.8.2s-1.2.3-1.7.5c-.3.1-.6.2-.9.4-.6.3-1.2.6-1.8.8-.3.1-.6.3-.9.4-.4.2-.8.3-1.2.4-2.9 1-5.9 1.5-9 1.1-1.3-.2-2.8-.3-4.1-.7-.4-.1-.8-.3-1.2-.5-.7-.3-1.4-.7-2.1-1.1 0 0-6.6 30.7-.5 32.1z"/><path d="M361.25 282.65c1.6-1.6 3.1-3.4 4.9-4.7 3.3-2.3 4.9.2 5.5 3.2 0 .2.1.3.1.5v1.5h-.2c.3 1.8.7 3.6.9 5.4.2 1.9.3 3.7.3 5.6 0 .7 0 1.5.1 2.2v1.1c0 .7 0 1.5-.1 2.2-.1 1.1-.4 2.2-.9 3.3-.2.5-.1 1.1-.2 1.7l-.6 2.7c-.1.5-.3.9-.4 1.4-.2 2.1-1 4-2.1 5.8-.7 1.1-1.2 1.2-2 .2-.4-.4-.7-1-.7-1.6-.4-3.4-.5-6.8-1-10.1-.2-1.6-1-3.2-1.5-4.7-.1-.2-.2-.3-.2-.4-.4-2.3-.9-4.5-1.3-6.8-.2-.9-.2-1.7-.4-2.6l-.3-2.5-.3-2.5v-.2c.2-.2.3-.5.4-.7zm-22.2 67.9c.1-.8.4-1.6.6-2.4.1-.3.2-.5.3-.8.3-2.3 1.3-4.4 2.5-6.2 1.9-2.8 3.9-5.5 6-8.2 1.6-2 2.6-4.3 3.4-6.8.1-.3.1-.7.1-1 0-.3-.1-.7-.1-1-.6-2.3-1.4-4.5-2.7-6.5-.2-.3-.4-.6-.6-.8-1.2-1.6-2.4-3.2-3.2-5-1.1-2.4.7-5.9 3.2-6.6.2 0 .4-.1.6-.1h.6c2.6.2 4.5 1.4 6.2 3.3.4.4.8.9 1.1 1.4.9 1.5 1.4 3.2 2 4.8.2.5.4 1 .5 1.6.1.5.2 1 .2 1.6.1 1 .1 2.1.1 3.1v.5c0 .5-.1 1 0 1.4.4 2.1-.7 3.8-1.4 5.6l-1.5 3.9c-.4 1.1-.9 2.2-1.3 3.3-.6 1.5-1.2 2.9-1.8 4.4-.4 1.1-.9 2.2-1.3 3.2l-1.3 3.2c-.7 1.6-1.3 3.2-2.2 4.7-.6 1.1-1.3 2.1-2.1 3-.8.9-1.7 1.7-2.9 2.3-1.6.8-3.3.4-4.2-.8-.3-.4-.6-.9-.6-1.5v-2.1c-.3-.4-.3-.9-.2-1.5z"/><path fill="#6A3C22" d="M211.15 453.15c-3.3 2.5-6.5 5-9.9 7.4-.3.2-.8.1-1.2.2.2-.4.3-.9.6-1.2 3.1-2.3 6.3-4.5 9.3-6.9 2.8-2.2 5.5-4.5 8-7.1 1.8-1.8 3.2-3.9 4.3-6.2.2-.4.3-.8.5-1.2.2-.4.3-.8.4-1.2.7-2.2 1-4.4 1.4-6.6.1-.4.4-.7.6-1.1.2.4.4.8.5 1.2.1.2 0 .5 0 .7.1 0 .2.1.3.1-.6 2.2-1.2 4.4-1.9 6.5-2.4 6.7-7.4 11.3-12.9 15.4zm43.4-68c.4 3.2.9 6.4.9 9.5-.1 4.5-.5 8.9-1.1 13.4-.3 2.7-1.1 5.4-1.9 8.1-.4 1.2-.8 2.5-1.2 3.7-.2.6-.5 1.2-.7 1.8-.2.6-.5 1.2-.7 1.8-1.7 4-3.3 8.1-5.2 12-2.1 4.1-4.4 8.1-6.9 11.9-3 4.6-6.1 9.2-9.3 13.7-1.7 2.5-3.7 4.8-5.5 7.2-.5.6-.8 1.3-1.3 1.8-.2.3-.7.3-1 .5 0-.4-.1-.9.1-1.1 1.5-2.1 3.1-4 4.6-6.1 3.2-4.5 6.5-8.9 9.6-13.5 1-1.5 2-3 2.9-4.5s1.8-3 2.7-4.6c2-3.7 3.9-7.4 5.6-11.2 1.7-3.7 3.1-7.5 4.4-11.3.6-1.8 1-3.7 1.4-5.5.6-2.5 1.2-5 1.6-7.6.3-1.8.3-3.6.4-5.4v-4h-.1c0-2.4.1-4.9 0-7.3 0-.8-.3-1.6-.5-2.4-.1-.3-.1-.5-.2-.8v-.2c.1-.3.3-.5.4-.8.5.4 1 .6 1 .9zm-28.2-44.5v-.4c.3.1.9.2 1 .4 2.3 5 6.2 8.4 10.2 11.9.6.5 1.2 1.1 1.8 1.6.3.3.6.5.9.8 3 2.7 6 5.4 8.7 8.4.9 1.1 1.7 2.2 2.3 3.5.2.4.4.8.6 1.3.7 1.8 1.2 3.7 1.4 5.7l-.6.6c-.3-.3-.7-.6-.7-.9-.3-6-3.8-10.3-8-14.1-4.2-3.8-8.4-7.5-12.5-11.3-2.2-2-3.7-4.5-5.1-7.1v-.4z"/></svg>